G04 Layer_Color=8388736*
%FSLAX25Y25*%
%MOIN*%
G70*
G01*
G75*
%ADD14C,0.13595*%
%ADD15C,0.10642*%
%ADD16C,0.06800*%
D14*
X422500Y362500D02*
D03*
Y407500D02*
D03*
X395000Y277500D02*
D03*
X440000D02*
D03*
X310000Y407500D02*
D03*
Y362500D02*
D03*
X292500Y277500D02*
D03*
X337500D02*
D03*
D15*
X440500Y417500D02*
D03*
Y352500D02*
D03*
X450000Y259500D02*
D03*
X385000D02*
D03*
X292000Y352500D02*
D03*
Y417500D02*
D03*
X347500Y259500D02*
D03*
X282500D02*
D03*
D16*
X387500Y377500D02*
D03*
Y367500D02*
D03*
X395000Y372500D02*
D03*
Y382500D02*
D03*
X387500Y387500D02*
D03*
X395000Y392500D02*
D03*
X387500Y397500D02*
D03*
X395000Y402500D02*
D03*
X410000Y312500D02*
D03*
X400000D02*
D03*
X405000Y305000D02*
D03*
X415000D02*
D03*
X420000Y312500D02*
D03*
X425000Y305000D02*
D03*
X430000Y312500D02*
D03*
X435000Y305000D02*
D03*
X345000Y392500D02*
D03*
Y402500D02*
D03*
X337500Y397500D02*
D03*
Y387500D02*
D03*
X345000Y382500D02*
D03*
X337500Y377500D02*
D03*
X345000Y372500D02*
D03*
X337500Y367500D02*
D03*
X307500Y312500D02*
D03*
X297500D02*
D03*
X302500Y305000D02*
D03*
X312500D02*
D03*
X317500Y312500D02*
D03*
X322500Y305000D02*
D03*
X327500Y312500D02*
D03*
X332500Y305000D02*
D03*
M02*
