G04 Layer_Color=16711935*
%FSLAX25Y25*%
%MOIN*%
G70*
G01*
G75*
%ADD14C,0.13595*%
%ADD15C,0.10642*%
%ADD16C,0.06800*%
G36*
X372898Y298246D02*
X372694Y298228D01*
X372509Y298200D01*
X372361Y298172D01*
X372241Y298135D01*
X372148Y298108D01*
X372093Y298089D01*
X372083Y298080D01*
X372074D01*
X371982Y298033D01*
X371889Y297987D01*
X371797Y297932D01*
X371723Y297876D01*
X371658Y297830D01*
X371612Y297793D01*
X371575Y297765D01*
X371566Y297756D01*
X371482Y297673D01*
X371408Y297580D01*
X371334Y297497D01*
X371279Y297423D01*
X371233Y297358D01*
X371205Y297303D01*
X371186Y297266D01*
X371177Y297256D01*
X371112Y297109D01*
X371066Y296951D01*
X371038Y296794D01*
X371020Y296646D01*
X371001Y296516D01*
X370992Y296406D01*
Y296369D01*
Y296341D01*
Y296322D01*
Y296313D01*
X371001Y296119D01*
X371020Y295952D01*
X371038Y295804D01*
X371075Y295675D01*
X371103Y295573D01*
X371122Y295508D01*
X371140Y295462D01*
X371149Y295444D01*
X371214Y295323D01*
X371288Y295221D01*
X371353Y295120D01*
X371427Y295037D01*
X371492Y294963D01*
X371538Y294916D01*
X371575Y294879D01*
X371584Y294870D01*
X371695Y294787D01*
X371806Y294713D01*
X371917Y294657D01*
X372019Y294602D01*
X372111Y294565D01*
X372185Y294537D01*
X372232Y294528D01*
X372250Y294518D01*
X372407Y294481D01*
X372574Y294463D01*
X372731Y294444D01*
X372888Y294426D01*
X373027D01*
X373138Y294417D01*
X373231D01*
X373443Y294426D01*
X373638Y294444D01*
X373804Y294472D01*
X373952Y294500D01*
X374063Y294528D01*
X374146Y294555D01*
X374202Y294574D01*
X374220Y294583D01*
X374359Y294648D01*
X374488Y294731D01*
X374600Y294805D01*
X374692Y294879D01*
X374766Y294953D01*
X374821Y295009D01*
X374858Y295046D01*
X374868Y295055D01*
X374960Y295175D01*
X375034Y295305D01*
X375099Y295425D01*
X375154Y295545D01*
X375191Y295647D01*
X375219Y295721D01*
X375229Y295777D01*
X375238Y295795D01*
X373897Y295943D01*
X373860Y295841D01*
X373813Y295749D01*
X373758Y295675D01*
X373711Y295619D01*
X373675Y295564D01*
X373638Y295536D01*
X373619Y295517D01*
X373610Y295508D01*
X373536Y295462D01*
X373462Y295425D01*
X373378Y295407D01*
X373314Y295388D01*
X373249Y295379D01*
X373194Y295370D01*
X373147D01*
X373027Y295379D01*
X372925Y295407D01*
X372833Y295444D01*
X372749Y295490D01*
X372685Y295527D01*
X372639Y295564D01*
X372611Y295591D01*
X372602Y295601D01*
X372528Y295693D01*
X372481Y295804D01*
X372444Y295915D01*
X372416Y296026D01*
X372398Y296128D01*
X372389Y296211D01*
Y296267D01*
Y296276D01*
Y296285D01*
X372398Y296461D01*
X372426Y296618D01*
X372453Y296748D01*
X372500Y296859D01*
X372537Y296942D01*
X372565Y296997D01*
X372592Y297035D01*
X372602Y297044D01*
X372685Y297127D01*
X372777Y297192D01*
X372870Y297229D01*
X372962Y297266D01*
X373045Y297284D01*
X373110Y297293D01*
X373166D01*
X373268Y297284D01*
X373351Y297275D01*
X373425Y297256D01*
X373489Y297229D01*
X373545Y297201D01*
X373582Y297182D01*
X373601Y297173D01*
X373610Y297164D01*
X373665Y297118D01*
X373721Y297062D01*
X373785Y296942D01*
X373813Y296896D01*
X373832Y296849D01*
X373841Y296822D01*
Y296813D01*
X375164Y296988D01*
X375080Y297210D01*
X374979Y297395D01*
X374868Y297562D01*
X374757Y297691D01*
X374655Y297793D01*
X374572Y297876D01*
X374516Y297913D01*
X374507Y297932D01*
X374498D01*
X374405Y297987D01*
X374304Y298043D01*
X374081Y298117D01*
X373860Y298172D01*
X373638Y298218D01*
X373536Y298228D01*
X373434Y298237D01*
X373351Y298246D01*
X373277D01*
X373212Y298255D01*
X373129D01*
X372898Y298246D01*
D02*
G37*
G36*
X355313Y298838D02*
Y298172D01*
X354795D01*
Y297146D01*
X355313D01*
Y295850D01*
X355323Y295638D01*
X355332Y295453D01*
X355350Y295296D01*
X355369Y295166D01*
X355387Y295074D01*
X355406Y295009D01*
X355424Y294963D01*
Y294953D01*
X355470Y294861D01*
X355535Y294777D01*
X355591Y294704D01*
X355656Y294648D01*
X355711Y294602D01*
X355757Y294574D01*
X355785Y294555D01*
X355794Y294546D01*
X355896Y294500D01*
X356026Y294472D01*
X356146Y294444D01*
X356275Y294435D01*
X356396Y294426D01*
X356488Y294417D01*
X356571D01*
X356747Y294426D01*
X356913Y294435D01*
X357080Y294454D01*
X357228Y294472D01*
X357358Y294491D01*
X357459Y294509D01*
X357496Y294518D01*
X357524Y294528D01*
X357552D01*
X357441Y295499D01*
X357339Y295471D01*
X357256Y295453D01*
X357182Y295434D01*
X357117Y295425D01*
X357071D01*
X357034Y295416D01*
X357006D01*
X356950Y295425D01*
X356895Y295434D01*
X356821Y295471D01*
X356784Y295508D01*
X356766Y295527D01*
X356756Y295564D01*
X356747Y295610D01*
X356738Y295712D01*
X356729Y295758D01*
Y295804D01*
Y295832D01*
Y295841D01*
Y297146D01*
X357505D01*
Y298172D01*
X356729D01*
Y299569D01*
X355313Y298838D01*
D02*
G37*
G36*
X382332Y298246D02*
X382166Y298237D01*
X382009Y298209D01*
X381861Y298172D01*
X381722Y298135D01*
X381602Y298089D01*
X381482Y298033D01*
X381380Y297987D01*
X381287Y297941D01*
X381213Y297885D01*
X381139Y297839D01*
X381084Y297802D01*
X381037Y297765D01*
X381010Y297747D01*
X380991Y297728D01*
X380982Y297719D01*
X380890Y297617D01*
X380806Y297506D01*
X380732Y297395D01*
X380667Y297275D01*
X380612Y297155D01*
X380566Y297044D01*
X380501Y296822D01*
X380483Y296720D01*
X380464Y296627D01*
X380455Y296535D01*
X380446Y296461D01*
X380436Y296406D01*
Y296359D01*
Y296332D01*
Y296322D01*
X380446Y296100D01*
X380483Y295906D01*
X380520Y295721D01*
X380575Y295573D01*
X380621Y295444D01*
X380667Y295351D01*
X380677Y295314D01*
X380695Y295286D01*
X380704Y295277D01*
Y295268D01*
X380816Y295111D01*
X380926Y294981D01*
X381047Y294870D01*
X381158Y294777D01*
X381250Y294713D01*
X381333Y294657D01*
X381380Y294630D01*
X381398Y294620D01*
X381565Y294555D01*
X381750Y294500D01*
X381944Y294463D01*
X382129Y294444D01*
X382295Y294426D01*
X382360D01*
X382425Y294417D01*
X382702D01*
X382841Y294426D01*
X382980Y294435D01*
X383100Y294454D01*
X383221Y294472D01*
X383322Y294491D01*
X383415Y294518D01*
X383507Y294537D01*
X383581Y294555D01*
X383646Y294583D01*
X383701Y294602D01*
X383748Y294620D01*
X383785Y294639D01*
X383812Y294648D01*
X383822Y294657D01*
X383831D01*
X383998Y294759D01*
X384145Y294879D01*
X384275Y295018D01*
X384386Y295147D01*
X384478Y295268D01*
X384553Y295360D01*
X384571Y295397D01*
X384590Y295425D01*
X384608Y295444D01*
Y295453D01*
X383221Y295582D01*
X383174Y295517D01*
X383119Y295471D01*
X383082Y295425D01*
X383045Y295397D01*
X382989Y295351D01*
X382980Y295342D01*
X382971D01*
X382897Y295305D01*
X382832Y295286D01*
X382712Y295249D01*
X382656D01*
X382619Y295240D01*
X382582D01*
X382462Y295249D01*
X382360Y295277D01*
X382268Y295314D01*
X382194Y295360D01*
X382129Y295407D01*
X382083Y295444D01*
X382055Y295471D01*
X382046Y295480D01*
X381999Y295554D01*
X381962Y295628D01*
X381907Y295795D01*
X381889Y295869D01*
X381879Y295934D01*
X381870Y295971D01*
Y295989D01*
X384691D01*
Y296146D01*
X384682Y296406D01*
X384654Y296637D01*
X384617Y296831D01*
X384571Y297007D01*
X384525Y297136D01*
X384506Y297192D01*
X384488Y297238D01*
X384469Y297275D01*
X384460Y297303D01*
X384451Y297312D01*
Y297321D01*
X384349Y297479D01*
X384238Y297617D01*
X384127Y297738D01*
X384007Y297839D01*
X383905Y297913D01*
X383822Y297969D01*
X383766Y298006D01*
X383757Y298015D01*
X383748D01*
X383563Y298098D01*
X383359Y298154D01*
X383156Y298200D01*
X382962Y298228D01*
X382786Y298246D01*
X382702D01*
X382638Y298255D01*
X382508D01*
X382332Y298246D01*
D02*
G37*
G36*
X352020D02*
X351854Y298237D01*
X351696Y298209D01*
X351549Y298172D01*
X351410Y298135D01*
X351290Y298089D01*
X351169Y298033D01*
X351067Y297987D01*
X350975Y297941D01*
X350901Y297885D01*
X350827Y297839D01*
X350771Y297802D01*
X350725Y297765D01*
X350697Y297747D01*
X350679Y297728D01*
X350670Y297719D01*
X350577Y297617D01*
X350494Y297506D01*
X350420Y297395D01*
X350355Y297275D01*
X350300Y297155D01*
X350254Y297044D01*
X350189Y296822D01*
X350170Y296720D01*
X350152Y296627D01*
X350143Y296535D01*
X350133Y296461D01*
X350124Y296406D01*
Y296359D01*
Y296332D01*
Y296322D01*
X350133Y296100D01*
X350170Y295906D01*
X350207Y295721D01*
X350263Y295573D01*
X350309Y295444D01*
X350355Y295351D01*
X350364Y295314D01*
X350383Y295286D01*
X350392Y295277D01*
Y295268D01*
X350503Y295111D01*
X350614Y294981D01*
X350734Y294870D01*
X350846Y294777D01*
X350938Y294713D01*
X351021Y294657D01*
X351067Y294630D01*
X351086Y294620D01*
X351253Y294555D01*
X351437Y294500D01*
X351632Y294463D01*
X351817Y294444D01*
X351983Y294426D01*
X352048D01*
X352113Y294417D01*
X352390D01*
X352529Y294426D01*
X352668Y294435D01*
X352788Y294454D01*
X352908Y294472D01*
X353010Y294491D01*
X353102Y294518D01*
X353195Y294537D01*
X353269Y294555D01*
X353334Y294583D01*
X353389Y294602D01*
X353435Y294620D01*
X353472Y294639D01*
X353500Y294648D01*
X353509Y294657D01*
X353519D01*
X353685Y294759D01*
X353833Y294879D01*
X353963Y295018D01*
X354074Y295147D01*
X354166Y295268D01*
X354240Y295360D01*
X354259Y295397D01*
X354277Y295425D01*
X354296Y295444D01*
Y295453D01*
X352908Y295582D01*
X352862Y295517D01*
X352806Y295471D01*
X352769Y295425D01*
X352732Y295397D01*
X352677Y295351D01*
X352668Y295342D01*
X352659D01*
X352585Y295305D01*
X352520Y295286D01*
X352399Y295249D01*
X352344D01*
X352307Y295240D01*
X352270D01*
X352150Y295249D01*
X352048Y295277D01*
X351956Y295314D01*
X351882Y295360D01*
X351817Y295407D01*
X351770Y295444D01*
X351743Y295471D01*
X351733Y295480D01*
X351687Y295554D01*
X351650Y295628D01*
X351595Y295795D01*
X351576Y295869D01*
X351567Y295934D01*
X351558Y295971D01*
Y295989D01*
X354379D01*
Y296146D01*
X354370Y296406D01*
X354342Y296637D01*
X354305Y296831D01*
X354259Y297007D01*
X354212Y297136D01*
X354194Y297192D01*
X354175Y297238D01*
X354157Y297275D01*
X354148Y297303D01*
X354138Y297312D01*
Y297321D01*
X354037Y297479D01*
X353926Y297617D01*
X353815Y297738D01*
X353695Y297839D01*
X353593Y297913D01*
X353509Y297969D01*
X353454Y298006D01*
X353445Y298015D01*
X353435D01*
X353251Y298098D01*
X353047Y298154D01*
X352843Y298200D01*
X352649Y298228D01*
X352473Y298246D01*
X352390D01*
X352326Y298255D01*
X352196D01*
X352020Y298246D01*
D02*
G37*
G36*
X387457D02*
X387365Y298237D01*
X387272Y298209D01*
X387198Y298182D01*
X387142Y298154D01*
X387096Y298135D01*
X387069Y298117D01*
X387059Y298108D01*
X386985Y298043D01*
X386920Y297959D01*
X386791Y297784D01*
X386745Y297701D01*
X386708Y297636D01*
X386680Y297589D01*
X386671Y297571D01*
Y298172D01*
X385357D01*
Y294500D01*
X386772D01*
Y295730D01*
Y295887D01*
X386782Y296036D01*
X386791Y296165D01*
X386809Y296285D01*
X386819Y296396D01*
X386837Y296498D01*
X386856Y296581D01*
X386883Y296665D01*
X386902Y296729D01*
X386920Y296785D01*
X386939Y296831D01*
X386948Y296868D01*
X386976Y296914D01*
X386985Y296933D01*
X387050Y297007D01*
X387124Y297062D01*
X387189Y297109D01*
X387263Y297136D01*
X387328Y297155D01*
X387374Y297164D01*
X387475D01*
X387540Y297146D01*
X387670Y297109D01*
X387725Y297090D01*
X387772Y297072D01*
X387799Y297062D01*
X387808Y297053D01*
X388252Y298061D01*
X388114Y298126D01*
X387984Y298172D01*
X387873Y298209D01*
X387772Y298228D01*
X387688Y298246D01*
X387624Y298255D01*
X387568D01*
X387457Y298246D01*
D02*
G37*
G36*
X367976D02*
X367856Y298237D01*
X367745Y298228D01*
X367653Y298209D01*
X367579Y298200D01*
X367542Y298191D01*
X367523D01*
X367403Y298172D01*
X367301Y298145D01*
X367209Y298117D01*
X367135Y298089D01*
X367079Y298061D01*
X367033Y298043D01*
X367005Y298033D01*
X366996Y298024D01*
X366903Y297969D01*
X366820Y297904D01*
X366746Y297849D01*
X366691Y297793D01*
X366645Y297747D01*
X366607Y297710D01*
X366589Y297682D01*
X366580Y297673D01*
X366533Y297589D01*
X366487Y297497D01*
X366450Y297405D01*
X366423Y297321D01*
X366395Y297238D01*
X366386Y297173D01*
X366367Y297136D01*
Y297118D01*
X367718Y296979D01*
X367745Y297062D01*
X367782Y297127D01*
X367819Y297182D01*
X367856Y297229D01*
X367884Y297266D01*
X367912Y297284D01*
X367921Y297303D01*
X367930D01*
X368004Y297340D01*
X368088Y297368D01*
X368254Y297405D01*
X368328D01*
X368393Y297414D01*
X368541D01*
X368624Y297395D01*
X368689Y297377D01*
X368735Y297358D01*
X368781Y297340D01*
X368809Y297321D01*
X368818Y297312D01*
X368828Y297303D01*
X368864Y297256D01*
X368892Y297201D01*
X368929Y297090D01*
Y297035D01*
X368938Y296988D01*
Y296960D01*
Y296951D01*
X368744Y296877D01*
X368661Y296849D01*
X368587Y296822D01*
X368522Y296803D01*
X368476Y296785D01*
X368439Y296776D01*
X368430D01*
X368384Y296766D01*
X368319Y296748D01*
X368171Y296711D01*
X368004Y296674D01*
X367828Y296637D01*
X367671Y296609D01*
X367597Y296590D01*
X367532Y296581D01*
X367477Y296572D01*
X367440Y296563D01*
X367412Y296553D01*
X367403D01*
X367283Y296526D01*
X367172Y296498D01*
X366987Y296433D01*
X366829Y296369D01*
X366700Y296304D01*
X366607Y296248D01*
X366543Y296202D01*
X366506Y296165D01*
X366496Y296156D01*
X366413Y296054D01*
X366358Y295934D01*
X366312Y295823D01*
X366284Y295712D01*
X366265Y295619D01*
X366256Y295545D01*
Y295490D01*
Y295480D01*
Y295471D01*
X366274Y295305D01*
X366312Y295166D01*
X366358Y295037D01*
X366423Y294925D01*
X366487Y294833D01*
X366533Y294768D01*
X366570Y294731D01*
X366589Y294713D01*
X366728Y294611D01*
X366894Y294546D01*
X367061Y294491D01*
X367218Y294454D01*
X367366Y294435D01*
X367431Y294426D01*
X367486D01*
X367532Y294417D01*
X367597D01*
X367773Y294426D01*
X367939Y294444D01*
X368088Y294463D01*
X368217Y294491D01*
X368319Y294518D01*
X368402Y294546D01*
X368448Y294555D01*
X368467Y294565D01*
X368568Y294611D01*
X368661Y294676D01*
X368754Y294731D01*
X368837Y294796D01*
X368911Y294851D01*
X368966Y294898D01*
X369003Y294935D01*
X369012Y294944D01*
X369031Y294842D01*
X369050Y294768D01*
X369059Y294731D01*
Y294713D01*
X369087Y294648D01*
X369124Y294583D01*
X369161Y294528D01*
X369170Y294509D01*
Y294500D01*
X370493D01*
X370419Y294648D01*
X370400Y294713D01*
X370381Y294768D01*
X370363Y294814D01*
X370354Y294842D01*
X370344Y294861D01*
Y294870D01*
X370335Y294935D01*
X370326Y295000D01*
X370317Y295129D01*
Y295184D01*
Y295231D01*
Y295268D01*
Y295277D01*
Y296896D01*
Y296997D01*
X370298Y297090D01*
X370280Y297182D01*
X370261Y297266D01*
X370243Y297340D01*
X370224Y297395D01*
X370215Y297432D01*
X370206Y297442D01*
X370169Y297543D01*
X370123Y297636D01*
X370076Y297710D01*
X370030Y297775D01*
X369993Y297821D01*
X369956Y297858D01*
X369937Y297876D01*
X369928Y297885D01*
X369827Y297959D01*
X369715Y298024D01*
X369614Y298080D01*
X369512Y298117D01*
X369420Y298145D01*
X369345Y298163D01*
X369299Y298182D01*
X369281D01*
X369133Y298209D01*
X368966Y298228D01*
X368791Y298237D01*
X368633Y298246D01*
X368485Y298255D01*
X368115D01*
X367976Y298246D01*
D02*
G37*
G36*
X360632Y294500D02*
X362195D01*
Y296553D01*
X363916D01*
Y294500D01*
X365488D01*
Y299569D01*
X363916D01*
Y297802D01*
X362195D01*
Y299569D01*
X360632D01*
Y294500D01*
D02*
G37*
G36*
X375885D02*
X377328D01*
Y295453D01*
X377846Y295961D01*
X378595Y294500D01*
X380187D01*
X378790Y296877D01*
X380113Y298172D01*
X378374D01*
X377328Y296960D01*
Y299569D01*
X375885D01*
Y294500D01*
D02*
G37*
G36*
X344500D02*
X345971D01*
Y297293D01*
X347876Y294500D01*
X349356D01*
Y299569D01*
X347876D01*
Y296757D01*
X345952Y299569D01*
X344500D01*
Y294500D01*
D02*
G37*
%LPC*%
G36*
X368929Y296239D02*
X368938D01*
Y296008D01*
Y295915D01*
X368920Y295832D01*
X368911Y295758D01*
X368892Y295703D01*
X368874Y295647D01*
X368864Y295610D01*
X368846Y295591D01*
Y295582D01*
X368809Y295527D01*
X368763Y295471D01*
X368670Y295388D01*
X368624Y295360D01*
X368596Y295333D01*
X368568Y295323D01*
X368559Y295314D01*
X368485Y295277D01*
X368402Y295249D01*
X368328Y295231D01*
X368263Y295221D01*
X368208Y295212D01*
X368162Y295203D01*
X368125D01*
X368051Y295212D01*
X367976Y295221D01*
X367921Y295240D01*
X367875Y295258D01*
X367828Y295277D01*
X367801Y295286D01*
X367792Y295305D01*
X367782D01*
X367745Y295342D01*
X367718Y295388D01*
X367690Y295480D01*
X367681Y295517D01*
X367671Y295545D01*
Y295564D01*
Y295573D01*
X367681Y295628D01*
X367690Y295675D01*
X367727Y295758D01*
X367764Y295813D01*
X367782Y295823D01*
Y295832D01*
X367838Y295878D01*
X367921Y295915D01*
X368004Y295952D01*
X368097Y295989D01*
X368189Y296017D01*
X368263Y296036D01*
X368309Y296045D01*
X368328Y296054D01*
X368559Y296119D01*
X368661Y296146D01*
X368754Y296174D01*
X368828Y296202D01*
X368892Y296220D01*
X368929Y296239D01*
D02*
G37*
G36*
X352196Y297423D02*
X352252D01*
X352353Y297414D01*
X352455Y297395D01*
X352529Y297368D01*
X352603Y297330D01*
X352649Y297293D01*
X352695Y297266D01*
X352714Y297247D01*
X352723Y297238D01*
X352788Y297164D01*
X352834Y297072D01*
X352871Y296979D01*
X352899Y296886D01*
X352918Y296803D01*
X352936Y296729D01*
X352945Y296683D01*
Y296674D01*
Y296665D01*
X351558D01*
X351576Y296776D01*
X351595Y296877D01*
X351623Y296960D01*
X351650Y297035D01*
X351678Y297081D01*
X351696Y297127D01*
X351706Y297146D01*
X351715Y297155D01*
X351798Y297247D01*
X351882Y297312D01*
X351974Y297358D01*
X352057Y297386D01*
X352131Y297414D01*
X352196Y297423D01*
D02*
G37*
G36*
X382508D02*
X382564D01*
X382665Y297414D01*
X382767Y297395D01*
X382841Y297368D01*
X382915Y297330D01*
X382962Y297293D01*
X383008Y297266D01*
X383026Y297247D01*
X383035Y297238D01*
X383100Y297164D01*
X383147Y297072D01*
X383184Y296979D01*
X383211Y296886D01*
X383230Y296803D01*
X383248Y296729D01*
X383258Y296683D01*
Y296674D01*
Y296665D01*
X381870D01*
X381889Y296776D01*
X381907Y296877D01*
X381935Y296960D01*
X381962Y297035D01*
X381990Y297081D01*
X382009Y297127D01*
X382018Y297146D01*
X382027Y297155D01*
X382111Y297247D01*
X382194Y297312D01*
X382286Y297358D01*
X382369Y297386D01*
X382443Y297414D01*
X382508Y297423D01*
D02*
G37*
%LPD*%
D14*
X422500Y362500D02*
D03*
Y407500D02*
D03*
X395000Y277500D02*
D03*
X440000D02*
D03*
X310000Y407500D02*
D03*
Y362500D02*
D03*
X292500Y277500D02*
D03*
X337500D02*
D03*
D15*
X440500Y417500D02*
D03*
Y352500D02*
D03*
X450000Y259500D02*
D03*
X385000D02*
D03*
X292000Y352500D02*
D03*
Y417500D02*
D03*
X347500Y259500D02*
D03*
X282500D02*
D03*
D16*
X387500Y377500D02*
D03*
Y367500D02*
D03*
X395000Y372500D02*
D03*
Y382500D02*
D03*
X387500Y387500D02*
D03*
X395000Y392500D02*
D03*
X387500Y397500D02*
D03*
X395000Y402500D02*
D03*
X410000Y312500D02*
D03*
X400000D02*
D03*
X405000Y305000D02*
D03*
X415000D02*
D03*
X420000Y312500D02*
D03*
X425000Y305000D02*
D03*
X430000Y312500D02*
D03*
X435000Y305000D02*
D03*
X345000Y392500D02*
D03*
Y402500D02*
D03*
X337500Y397500D02*
D03*
Y387500D02*
D03*
X345000Y382500D02*
D03*
X337500Y377500D02*
D03*
X345000Y372500D02*
D03*
X337500Y367500D02*
D03*
X307500Y312500D02*
D03*
X297500D02*
D03*
X302500Y305000D02*
D03*
X312500D02*
D03*
X317500Y312500D02*
D03*
X322500Y305000D02*
D03*
X327500Y312500D02*
D03*
X332500Y305000D02*
D03*
M02*
