G04 Layer_Physical_Order=2*
G04 Layer_Color=16711680*
%FSLAX25Y25*%
%MOIN*%
G70*
G01*
G75*
%ADD10C,0.01000*%
%ADD11C,0.12795*%
%ADD12C,0.09843*%
%ADD13C,0.06000*%
G36*
X268529Y421867D02*
Y238134D01*
X270634Y236029D01*
X461867D01*
X463971Y238133D01*
Y421867D01*
X461867Y423971D01*
X270634D01*
X268529Y421867D01*
D02*
G37*
%LPC*%
G36*
X435000Y309034D02*
X436044Y308897D01*
X437017Y308494D01*
X437853Y307853D01*
X438494Y307017D01*
X438897Y306044D01*
X439035Y305000D01*
X438897Y303956D01*
X438494Y302983D01*
X437853Y302147D01*
X437017Y301506D01*
X436044Y301103D01*
X435000Y300965D01*
X433956Y301103D01*
X432983Y301506D01*
X432147Y302147D01*
X431506Y302983D01*
X431103Y303956D01*
X430966Y305000D01*
X431103Y306044D01*
X431506Y307017D01*
X432147Y307853D01*
X432983Y308494D01*
X433956Y308897D01*
X435000Y309034D01*
D02*
G37*
G36*
X292500Y284933D02*
X293950Y284791D01*
X295345Y284368D01*
X296630Y283681D01*
X297756Y282756D01*
X298681Y281630D01*
X299368Y280345D01*
X299791Y278950D01*
X299933Y277500D01*
X299791Y276050D01*
X299368Y274655D01*
X298681Y273370D01*
X297756Y272244D01*
X296630Y271319D01*
X295345Y270632D01*
X293950Y270209D01*
X292500Y270067D01*
X291050Y270209D01*
X289655Y270632D01*
X288370Y271319D01*
X287244Y272244D01*
X286319Y273370D01*
X285632Y274655D01*
X285209Y276050D01*
X285067Y277500D01*
X285209Y278950D01*
X285632Y280345D01*
X286319Y281630D01*
X287244Y282756D01*
X288370Y283681D01*
X289655Y284368D01*
X291050Y284791D01*
X292500Y284933D01*
D02*
G37*
G36*
X337500D02*
X338950Y284791D01*
X340345Y284368D01*
X341630Y283681D01*
X342756Y282756D01*
X343681Y281630D01*
X344368Y280345D01*
X344791Y278950D01*
X344933Y277500D01*
X344791Y276050D01*
X344368Y274655D01*
X343681Y273370D01*
X342756Y272244D01*
X341630Y271319D01*
X340345Y270632D01*
X338950Y270209D01*
X337500Y270067D01*
X336050Y270209D01*
X334655Y270632D01*
X333370Y271319D01*
X332244Y272244D01*
X331319Y273370D01*
X330632Y274655D01*
X330209Y276050D01*
X330067Y277500D01*
X330209Y278950D01*
X330632Y280345D01*
X331319Y281630D01*
X332244Y282756D01*
X333370Y283681D01*
X334655Y284368D01*
X336050Y284791D01*
X337500Y284933D01*
D02*
G37*
G36*
X415000Y309034D02*
X416044Y308897D01*
X417017Y308494D01*
X417853Y307853D01*
X418494Y307017D01*
X418897Y306044D01*
X419034Y305000D01*
X418897Y303956D01*
X418494Y302983D01*
X417853Y302147D01*
X417017Y301506D01*
X416044Y301103D01*
X415000Y300965D01*
X413956Y301103D01*
X412983Y301506D01*
X412147Y302147D01*
X411506Y302983D01*
X411103Y303956D01*
X410965Y305000D01*
X411103Y306044D01*
X411506Y307017D01*
X412147Y307853D01*
X412983Y308494D01*
X413956Y308897D01*
X415000Y309034D01*
D02*
G37*
G36*
X395000Y396534D02*
X396044Y396397D01*
X397017Y395994D01*
X397853Y395353D01*
X398494Y394517D01*
X398696Y394029D01*
X407500D01*
X408085Y393913D01*
X408581Y393581D01*
X408913Y393085D01*
X409029Y392500D01*
Y352500D01*
X408913Y351915D01*
X408581Y351419D01*
X408085Y351087D01*
X407500Y350971D01*
X376529D01*
Y341529D01*
X425000D01*
X425585Y341413D01*
X426081Y341081D01*
X426413Y340585D01*
X426529Y340000D01*
Y315325D01*
X427003Y315165D01*
X427147Y315353D01*
X427983Y315994D01*
X428956Y316397D01*
X430000Y316534D01*
X431044Y316397D01*
X432017Y315994D01*
X432853Y315353D01*
X433494Y314517D01*
X433897Y313544D01*
X434034Y312500D01*
X433897Y311456D01*
X433494Y310483D01*
X432853Y309647D01*
X432017Y309006D01*
X431044Y308603D01*
X430000Y308466D01*
X428956Y308603D01*
X427983Y309006D01*
X427147Y309647D01*
X427003Y309835D01*
X426529Y309675D01*
Y308696D01*
X427017Y308494D01*
X427853Y307853D01*
X428494Y307017D01*
X428897Y306044D01*
X429035Y305000D01*
X428897Y303956D01*
X428494Y302983D01*
X427853Y302147D01*
X427017Y301506D01*
X426044Y301103D01*
X425000Y300965D01*
X423956Y301103D01*
X422983Y301506D01*
X422147Y302147D01*
X421506Y302983D01*
X421103Y303956D01*
X420965Y305000D01*
X421103Y306044D01*
X421506Y307017D01*
X422147Y307853D01*
X422983Y308494D01*
X423471Y308696D01*
Y309675D01*
X422997Y309835D01*
X422853Y309647D01*
X422017Y309006D01*
X421044Y308603D01*
X420000Y308466D01*
X418956Y308603D01*
X417983Y309006D01*
X417147Y309647D01*
X416506Y310483D01*
X416103Y311456D01*
X415966Y312500D01*
X416103Y313544D01*
X416506Y314517D01*
X417147Y315353D01*
X417983Y315994D01*
X418956Y316397D01*
X420000Y316534D01*
X421044Y316397D01*
X422017Y315994D01*
X422853Y315353D01*
X422997Y315165D01*
X423471Y315325D01*
Y338471D01*
X411711D01*
X411436Y337971D01*
X411529Y337500D01*
Y316196D01*
X412017Y315994D01*
X412853Y315353D01*
X413494Y314517D01*
X413897Y313544D01*
X414035Y312500D01*
X413897Y311456D01*
X413494Y310483D01*
X412853Y309647D01*
X412017Y309006D01*
X411044Y308603D01*
X410000Y308466D01*
X408956Y308603D01*
X407983Y309006D01*
X407147Y309647D01*
X407003Y309835D01*
X406529Y309675D01*
Y308696D01*
X407017Y308494D01*
X407853Y307853D01*
X408494Y307017D01*
X408897Y306044D01*
X409034Y305000D01*
X408897Y303956D01*
X408494Y302983D01*
X407853Y302147D01*
X407017Y301506D01*
X406044Y301103D01*
X405000Y300965D01*
X403956Y301103D01*
X402983Y301506D01*
X402147Y302147D01*
X401506Y302983D01*
X401103Y303956D01*
X400965Y305000D01*
X401103Y306044D01*
X401506Y307017D01*
X402147Y307853D01*
X402983Y308494D01*
X403471Y308696D01*
Y309675D01*
X402997Y309835D01*
X402853Y309647D01*
X402017Y309006D01*
X401044Y308603D01*
X400000Y308466D01*
X398956Y308603D01*
X397983Y309006D01*
X397147Y309647D01*
X396506Y310483D01*
X396103Y311456D01*
X395966Y312500D01*
X396103Y313544D01*
X396506Y314517D01*
X397147Y315353D01*
X397983Y315994D01*
X398471Y316196D01*
Y330971D01*
X367500D01*
X366915Y331087D01*
X366419Y331419D01*
X366081D01*
X365585Y331087D01*
X365000Y330971D01*
X324029D01*
Y315325D01*
X324503Y315165D01*
X324647Y315353D01*
X325483Y315994D01*
X326456Y316397D01*
X327500Y316534D01*
X328544Y316397D01*
X329517Y315994D01*
X330353Y315353D01*
X330994Y314517D01*
X331397Y313544D01*
X331535Y312500D01*
X331397Y311456D01*
X330994Y310483D01*
X330353Y309647D01*
X329517Y309006D01*
X328544Y308603D01*
X327500Y308466D01*
X326456Y308603D01*
X325483Y309006D01*
X324647Y309647D01*
X324503Y309835D01*
X324029Y309675D01*
Y308696D01*
X324517Y308494D01*
X325353Y307853D01*
X325994Y307017D01*
X326397Y306044D01*
X326535Y305000D01*
X326397Y303956D01*
X325994Y302983D01*
X325353Y302147D01*
X324517Y301506D01*
X323544Y301103D01*
X322500Y300965D01*
X321456Y301103D01*
X320483Y301506D01*
X319647Y302147D01*
X319006Y302983D01*
X318603Y303956D01*
X318465Y305000D01*
X318603Y306044D01*
X319006Y307017D01*
X319647Y307853D01*
X320483Y308494D01*
X320971Y308696D01*
Y309675D01*
X320497Y309835D01*
X320353Y309647D01*
X319517Y309006D01*
X318544Y308603D01*
X317500Y308466D01*
X316456Y308603D01*
X315483Y309006D01*
X314647Y309647D01*
X314006Y310483D01*
X313603Y311456D01*
X313465Y312500D01*
X313603Y313544D01*
X314006Y314517D01*
X314647Y315353D01*
X315483Y315994D01*
X316456Y316397D01*
X317500Y316534D01*
X318544Y316397D01*
X319517Y315994D01*
X320353Y315353D01*
X320497Y315165D01*
X320971Y315325D01*
Y332500D01*
X321064Y332971D01*
X320789Y333471D01*
X309029D01*
Y316196D01*
X309517Y315994D01*
X310353Y315353D01*
X310994Y314517D01*
X311397Y313544D01*
X311535Y312500D01*
X311397Y311456D01*
X310994Y310483D01*
X310353Y309647D01*
X309517Y309006D01*
X308544Y308603D01*
X307500Y308466D01*
X306456Y308603D01*
X305483Y309006D01*
X304647Y309647D01*
X304503Y309835D01*
X304029Y309675D01*
Y308696D01*
X304517Y308494D01*
X305353Y307853D01*
X305994Y307017D01*
X306397Y306044D01*
X306535Y305000D01*
X306397Y303956D01*
X305994Y302983D01*
X305353Y302147D01*
X304517Y301506D01*
X303544Y301103D01*
X302500Y300965D01*
X301456Y301103D01*
X300483Y301506D01*
X299647Y302147D01*
X299006Y302983D01*
X298603Y303956D01*
X298465Y305000D01*
X298603Y306044D01*
X299006Y307017D01*
X299647Y307853D01*
X300483Y308494D01*
X300971Y308696D01*
Y309675D01*
X300497Y309835D01*
X300353Y309647D01*
X299517Y309006D01*
X298544Y308603D01*
X297500Y308466D01*
X296456Y308603D01*
X295483Y309006D01*
X294647Y309647D01*
X294006Y310483D01*
X293603Y311456D01*
X293465Y312500D01*
X293603Y313544D01*
X294006Y314517D01*
X294647Y315353D01*
X295483Y315994D01*
X295971Y316196D01*
Y340000D01*
X296087Y340585D01*
X296419Y341081D01*
X296915Y341413D01*
X297500Y341529D01*
X355971D01*
Y350971D01*
X322500D01*
X321915Y351087D01*
X321419Y351419D01*
X321087Y351915D01*
X320971Y352500D01*
Y387500D01*
X321087Y388085D01*
X321419Y388581D01*
X321915Y388913D01*
X322500Y389029D01*
X333804D01*
X334006Y389517D01*
X334647Y390353D01*
X335483Y390994D01*
X336456Y391397D01*
X337500Y391534D01*
X338544Y391397D01*
X339517Y390994D01*
X340353Y390353D01*
X340994Y389517D01*
X341397Y388544D01*
X341534Y387500D01*
X341397Y386456D01*
X340994Y385483D01*
X340353Y384647D01*
X340165Y384503D01*
X340325Y384029D01*
X341304D01*
X341506Y384517D01*
X342147Y385353D01*
X342983Y385994D01*
X343956Y386397D01*
X345000Y386535D01*
X346044Y386397D01*
X347017Y385994D01*
X347853Y385353D01*
X348494Y384517D01*
X348897Y383544D01*
X349035Y382500D01*
X348897Y381456D01*
X348494Y380483D01*
X347853Y379647D01*
X347017Y379006D01*
X346044Y378603D01*
X345000Y378466D01*
X343956Y378603D01*
X342983Y379006D01*
X342147Y379647D01*
X341506Y380483D01*
X341304Y380971D01*
X340325D01*
X340165Y380497D01*
X340353Y380353D01*
X340994Y379517D01*
X341397Y378544D01*
X341534Y377500D01*
X341397Y376456D01*
X340994Y375483D01*
X340353Y374647D01*
X340165Y374503D01*
X340325Y374029D01*
X341304D01*
X341506Y374517D01*
X342147Y375353D01*
X342983Y375994D01*
X343956Y376397D01*
X345000Y376535D01*
X346044Y376397D01*
X347017Y375994D01*
X347853Y375353D01*
X348494Y374517D01*
X348897Y373544D01*
X349035Y372500D01*
X348897Y371456D01*
X348494Y370483D01*
X347853Y369647D01*
X347017Y369006D01*
X346044Y368603D01*
X345000Y368465D01*
X343956Y368603D01*
X342983Y369006D01*
X342147Y369647D01*
X341506Y370483D01*
X341304Y370971D01*
X340325D01*
X340165Y370497D01*
X340353Y370353D01*
X340994Y369517D01*
X341397Y368544D01*
X341534Y367500D01*
X341397Y366456D01*
X340994Y365483D01*
X340353Y364647D01*
X339517Y364006D01*
X338544Y363603D01*
X337500Y363465D01*
X336456Y363603D01*
X335483Y364006D01*
X334647Y364647D01*
X334006Y365483D01*
X333804Y365971D01*
X331529D01*
Y361529D01*
X365000D01*
X365585Y361413D01*
X365899Y361204D01*
X366250Y361121D01*
X366601Y361204D01*
X366915Y361413D01*
X367500Y361529D01*
X398471D01*
Y365971D01*
X391196D01*
X390994Y365483D01*
X390353Y364647D01*
X389517Y364006D01*
X388544Y363603D01*
X387500Y363465D01*
X386456Y363603D01*
X385483Y364006D01*
X384647Y364647D01*
X384006Y365483D01*
X383603Y366456D01*
X383466Y367500D01*
X383603Y368544D01*
X384006Y369517D01*
X384647Y370353D01*
X385483Y370994D01*
X386456Y371397D01*
X387500Y371534D01*
X388544Y371397D01*
X389517Y370994D01*
X390353Y370353D01*
X390994Y369517D01*
X391196Y369029D01*
X392175D01*
X392335Y369503D01*
X392147Y369647D01*
X391506Y370483D01*
X391103Y371456D01*
X390966Y372500D01*
X391103Y373544D01*
X391506Y374517D01*
X392147Y375353D01*
X392335Y375497D01*
X392175Y375971D01*
X391196D01*
X390994Y375483D01*
X390353Y374647D01*
X389517Y374006D01*
X388544Y373603D01*
X387500Y373465D01*
X386456Y373603D01*
X385483Y374006D01*
X384647Y374647D01*
X384006Y375483D01*
X383603Y376456D01*
X383466Y377500D01*
X383603Y378544D01*
X384006Y379517D01*
X384647Y380353D01*
X385483Y380994D01*
X386456Y381397D01*
X387500Y381535D01*
X388544Y381397D01*
X389517Y380994D01*
X390353Y380353D01*
X390994Y379517D01*
X391196Y379029D01*
X392175D01*
X392335Y379503D01*
X392147Y379647D01*
X391506Y380483D01*
X391103Y381456D01*
X390966Y382500D01*
X391103Y383544D01*
X391506Y384517D01*
X392147Y385353D01*
X392983Y385994D01*
X393956Y386397D01*
X395000Y386535D01*
X396044Y386397D01*
X397017Y385994D01*
X397853Y385353D01*
X398494Y384517D01*
X398897Y383544D01*
X399035Y382500D01*
X398897Y381456D01*
X398494Y380483D01*
X397853Y379647D01*
X397665Y379503D01*
X397826Y379029D01*
X405000D01*
X405471Y378936D01*
X405971Y379211D01*
Y390971D01*
X398696D01*
X398494Y390483D01*
X397853Y389647D01*
X397017Y389006D01*
X396044Y388603D01*
X395000Y388465D01*
X393956Y388603D01*
X392983Y389006D01*
X392147Y389647D01*
X391506Y390483D01*
X391103Y391456D01*
X390966Y392500D01*
X391103Y393544D01*
X391506Y394517D01*
X392147Y395353D01*
X392983Y395994D01*
X393956Y396397D01*
X395000Y396534D01*
D02*
G37*
G36*
X312500Y309034D02*
X313544Y308897D01*
X314517Y308494D01*
X315353Y307853D01*
X315994Y307017D01*
X316397Y306044D01*
X316534Y305000D01*
X316397Y303956D01*
X315994Y302983D01*
X315353Y302147D01*
X314517Y301506D01*
X313544Y301103D01*
X312500Y300965D01*
X311456Y301103D01*
X310483Y301506D01*
X309647Y302147D01*
X309006Y302983D01*
X308603Y303956D01*
X308466Y305000D01*
X308603Y306044D01*
X309006Y307017D01*
X309647Y307853D01*
X310483Y308494D01*
X311456Y308897D01*
X312500Y309034D01*
D02*
G37*
G36*
X332500D02*
X333544Y308897D01*
X334517Y308494D01*
X335353Y307853D01*
X335994Y307017D01*
X336397Y306044D01*
X336535Y305000D01*
X336397Y303956D01*
X335994Y302983D01*
X335353Y302147D01*
X334517Y301506D01*
X333544Y301103D01*
X332500Y300965D01*
X331456Y301103D01*
X330483Y301506D01*
X329647Y302147D01*
X329006Y302983D01*
X328603Y303956D01*
X328466Y305000D01*
X328603Y306044D01*
X329006Y307017D01*
X329647Y307853D01*
X330483Y308494D01*
X331456Y308897D01*
X332500Y309034D01*
D02*
G37*
G36*
X385000Y265450D02*
X386161Y265336D01*
X387277Y264997D01*
X388306Y264447D01*
X389207Y263707D01*
X389947Y262806D01*
X390497Y261777D01*
X390836Y260661D01*
X390950Y259500D01*
X390836Y258339D01*
X390497Y257223D01*
X389947Y256194D01*
X389207Y255293D01*
X388306Y254553D01*
X387277Y254003D01*
X386161Y253664D01*
X385000Y253550D01*
X383839Y253664D01*
X382723Y254003D01*
X381694Y254553D01*
X380793Y255293D01*
X380053Y256194D01*
X379503Y257223D01*
X379164Y258339D01*
X379050Y259500D01*
X379164Y260661D01*
X379503Y261777D01*
X380053Y262806D01*
X380793Y263707D01*
X381694Y264447D01*
X382723Y264997D01*
X383839Y265336D01*
X385000Y265450D01*
D02*
G37*
G36*
X450000D02*
X451161Y265336D01*
X452277Y264997D01*
X453306Y264447D01*
X454207Y263707D01*
X454947Y262806D01*
X455497Y261777D01*
X455836Y260661D01*
X455950Y259500D01*
X455836Y258339D01*
X455497Y257223D01*
X454947Y256194D01*
X454207Y255293D01*
X453306Y254553D01*
X452277Y254003D01*
X451161Y253664D01*
X450000Y253550D01*
X448839Y253664D01*
X447723Y254003D01*
X446694Y254553D01*
X445793Y255293D01*
X445053Y256194D01*
X444503Y257223D01*
X444164Y258339D01*
X444050Y259500D01*
X444164Y260661D01*
X444503Y261777D01*
X445053Y262806D01*
X445793Y263707D01*
X446694Y264447D01*
X447723Y264997D01*
X448839Y265336D01*
X450000Y265450D01*
D02*
G37*
G36*
X276491Y249540D02*
X370251D01*
Y239622D01*
X276491D01*
Y249540D01*
D02*
G37*
G36*
X347500Y265450D02*
X348661Y265336D01*
X349777Y264997D01*
X350806Y264447D01*
X351707Y263707D01*
X352447Y262806D01*
X352997Y261777D01*
X353336Y260661D01*
X353450Y259500D01*
X353336Y258339D01*
X352997Y257223D01*
X352447Y256194D01*
X351707Y255293D01*
X350806Y254553D01*
X349777Y254003D01*
X348661Y253664D01*
X347500Y253550D01*
X346339Y253664D01*
X345223Y254003D01*
X344194Y254553D01*
X343293Y255293D01*
X342553Y256194D01*
X342003Y257223D01*
X341664Y258339D01*
X341550Y259500D01*
X341664Y260661D01*
X342003Y261777D01*
X342553Y262806D01*
X343293Y263707D01*
X344194Y264447D01*
X345223Y264997D01*
X346339Y265336D01*
X347500Y265450D01*
D02*
G37*
G36*
X395000Y284933D02*
X396450Y284791D01*
X397845Y284368D01*
X399130Y283681D01*
X400256Y282756D01*
X401181Y281630D01*
X401868Y280345D01*
X402291Y278950D01*
X402433Y277500D01*
X402291Y276050D01*
X401868Y274655D01*
X401181Y273370D01*
X400256Y272244D01*
X399130Y271319D01*
X397845Y270632D01*
X396450Y270209D01*
X395000Y270067D01*
X393550Y270209D01*
X392155Y270632D01*
X390870Y271319D01*
X389744Y272244D01*
X388819Y273370D01*
X388132Y274655D01*
X387709Y276050D01*
X387567Y277500D01*
X387709Y278950D01*
X388132Y280345D01*
X388819Y281630D01*
X389744Y282756D01*
X390870Y283681D01*
X392155Y284368D01*
X393550Y284791D01*
X395000Y284933D01*
D02*
G37*
G36*
X440000D02*
X441450Y284791D01*
X442845Y284368D01*
X444130Y283681D01*
X445256Y282756D01*
X446181Y281630D01*
X446868Y280345D01*
X447291Y278950D01*
X447433Y277500D01*
X447291Y276050D01*
X446868Y274655D01*
X446181Y273370D01*
X445256Y272244D01*
X444130Y271319D01*
X442845Y270632D01*
X441450Y270209D01*
X440000Y270067D01*
X438550Y270209D01*
X437155Y270632D01*
X435870Y271319D01*
X434744Y272244D01*
X433819Y273370D01*
X433132Y274655D01*
X432709Y276050D01*
X432567Y277500D01*
X432709Y278950D01*
X433132Y280345D01*
X433819Y281630D01*
X434744Y282756D01*
X435870Y283681D01*
X437155Y284368D01*
X438550Y284791D01*
X440000Y284933D01*
D02*
G37*
G36*
X282500Y265450D02*
X283661Y265336D01*
X284777Y264997D01*
X285806Y264447D01*
X286707Y263707D01*
X287447Y262806D01*
X287997Y261777D01*
X288336Y260661D01*
X288450Y259500D01*
X288336Y258339D01*
X287997Y257223D01*
X287447Y256194D01*
X286707Y255293D01*
X285806Y254553D01*
X284777Y254003D01*
X283661Y253664D01*
X282500Y253550D01*
X281339Y253664D01*
X280223Y254003D01*
X279194Y254553D01*
X278293Y255293D01*
X277553Y256194D01*
X277003Y257223D01*
X276664Y258339D01*
X276550Y259500D01*
X276664Y260661D01*
X277003Y261777D01*
X277553Y262806D01*
X278293Y263707D01*
X279194Y264447D01*
X280223Y264997D01*
X281339Y265336D01*
X282500Y265450D01*
D02*
G37*
G36*
X337500Y401535D02*
X338544Y401397D01*
X339517Y400994D01*
X340353Y400353D01*
X340994Y399517D01*
X341397Y398544D01*
X341534Y397500D01*
X341397Y396456D01*
X340994Y395483D01*
X340353Y394647D01*
X339517Y394006D01*
X338544Y393603D01*
X337500Y393465D01*
X336456Y393603D01*
X335483Y394006D01*
X334647Y394647D01*
X334006Y395483D01*
X333603Y396456D01*
X333466Y397500D01*
X333603Y398544D01*
X334006Y399517D01*
X334647Y400353D01*
X335483Y400994D01*
X336456Y401397D01*
X337500Y401535D01*
D02*
G37*
G36*
X395000Y406534D02*
X396044Y406397D01*
X397017Y405994D01*
X397853Y405353D01*
X398494Y404517D01*
X398897Y403544D01*
X399035Y402500D01*
X398897Y401456D01*
X398494Y400483D01*
X397853Y399647D01*
X397017Y399006D01*
X396044Y398603D01*
X395000Y398465D01*
X393956Y398603D01*
X392983Y399006D01*
X392147Y399647D01*
X391506Y400483D01*
X391103Y401456D01*
X390966Y402500D01*
X391103Y403544D01*
X391506Y404517D01*
X392147Y405353D01*
X392983Y405994D01*
X393956Y406397D01*
X395000Y406534D01*
D02*
G37*
G36*
X345000Y396534D02*
X346044Y396397D01*
X347017Y395994D01*
X347853Y395353D01*
X348494Y394517D01*
X348897Y393544D01*
X349035Y392500D01*
X348897Y391456D01*
X348494Y390483D01*
X347853Y389647D01*
X347017Y389006D01*
X346044Y388603D01*
X345000Y388465D01*
X343956Y388603D01*
X342983Y389006D01*
X342147Y389647D01*
X341506Y390483D01*
X341103Y391456D01*
X340966Y392500D01*
X341103Y393544D01*
X341506Y394517D01*
X342147Y395353D01*
X342983Y395994D01*
X343956Y396397D01*
X345000Y396534D01*
D02*
G37*
G36*
X387500Y401535D02*
X388544Y401397D01*
X389517Y400994D01*
X390353Y400353D01*
X390994Y399517D01*
X391397Y398544D01*
X391534Y397500D01*
X391397Y396456D01*
X390994Y395483D01*
X390353Y394647D01*
X389517Y394006D01*
X388544Y393603D01*
X387500Y393465D01*
X386456Y393603D01*
X385483Y394006D01*
X384647Y394647D01*
X384006Y395483D01*
X383603Y396456D01*
X383466Y397500D01*
X383603Y398544D01*
X384006Y399517D01*
X384647Y400353D01*
X385483Y400994D01*
X386456Y401397D01*
X387500Y401535D01*
D02*
G37*
G36*
X345000Y406534D02*
X346044Y406397D01*
X347017Y405994D01*
X347853Y405353D01*
X348494Y404517D01*
X348897Y403544D01*
X349035Y402500D01*
X348897Y401456D01*
X348494Y400483D01*
X347853Y399647D01*
X347017Y399006D01*
X346044Y398603D01*
X345000Y398465D01*
X343956Y398603D01*
X342983Y399006D01*
X342147Y399647D01*
X341506Y400483D01*
X341103Y401456D01*
X340966Y402500D01*
X341103Y403544D01*
X341506Y404517D01*
X342147Y405353D01*
X342983Y405994D01*
X343956Y406397D01*
X345000Y406534D01*
D02*
G37*
G36*
X440500Y423450D02*
X441661Y423336D01*
X442777Y422997D01*
X443806Y422447D01*
X444707Y421707D01*
X445447Y420806D01*
X445997Y419777D01*
X446336Y418661D01*
X446450Y417500D01*
X446336Y416339D01*
X445997Y415223D01*
X445447Y414194D01*
X444707Y413293D01*
X443806Y412553D01*
X442777Y412003D01*
X441661Y411664D01*
X440500Y411550D01*
X439339Y411664D01*
X438223Y412003D01*
X437194Y412553D01*
X436293Y413293D01*
X435553Y414194D01*
X435003Y415223D01*
X434664Y416339D01*
X434550Y417500D01*
X434664Y418661D01*
X435003Y419777D01*
X435553Y420806D01*
X436293Y421707D01*
X437194Y422447D01*
X438223Y422997D01*
X439339Y423336D01*
X440500Y423450D01*
D02*
G37*
G36*
X292000D02*
X293161Y423336D01*
X294277Y422997D01*
X295306Y422447D01*
X296207Y421707D01*
X296947Y420806D01*
X297497Y419777D01*
X297836Y418661D01*
X297950Y417500D01*
X297836Y416339D01*
X297497Y415223D01*
X296947Y414194D01*
X296207Y413293D01*
X295306Y412553D01*
X294277Y412003D01*
X293161Y411664D01*
X292000Y411550D01*
X290839Y411664D01*
X289723Y412003D01*
X288694Y412553D01*
X287793Y413293D01*
X287053Y414194D01*
X286503Y415223D01*
X286164Y416339D01*
X286050Y417500D01*
X286164Y418661D01*
X286503Y419777D01*
X287053Y420806D01*
X287793Y421707D01*
X288694Y422447D01*
X289723Y422997D01*
X290839Y423336D01*
X292000Y423450D01*
D02*
G37*
G36*
X422500Y414933D02*
X423950Y414791D01*
X425345Y414368D01*
X426630Y413681D01*
X427756Y412756D01*
X428681Y411630D01*
X429368Y410345D01*
X429791Y408950D01*
X429933Y407500D01*
X429791Y406050D01*
X429368Y404655D01*
X428681Y403370D01*
X427756Y402244D01*
X426630Y401319D01*
X425345Y400632D01*
X423950Y400209D01*
X422500Y400067D01*
X421050Y400209D01*
X419655Y400632D01*
X418370Y401319D01*
X417244Y402244D01*
X416319Y403370D01*
X415632Y404655D01*
X415209Y406050D01*
X415067Y407500D01*
X415209Y408950D01*
X415632Y410345D01*
X416319Y411630D01*
X417244Y412756D01*
X418370Y413681D01*
X419655Y414368D01*
X421050Y414791D01*
X422500Y414933D01*
D02*
G37*
G36*
X310000D02*
X311450Y414791D01*
X312845Y414368D01*
X314130Y413681D01*
X315256Y412756D01*
X316181Y411630D01*
X316868Y410345D01*
X317291Y408950D01*
X317433Y407500D01*
X317291Y406050D01*
X316868Y404655D01*
X316181Y403370D01*
X315256Y402244D01*
X314130Y401319D01*
X312845Y400632D01*
X311450Y400209D01*
X310000Y400067D01*
X308550Y400209D01*
X307155Y400632D01*
X305870Y401319D01*
X304744Y402244D01*
X303819Y403370D01*
X303132Y404655D01*
X302709Y406050D01*
X302567Y407500D01*
X302709Y408950D01*
X303132Y410345D01*
X303819Y411630D01*
X304744Y412756D01*
X305870Y413681D01*
X307155Y414368D01*
X308550Y414791D01*
X310000Y414933D01*
D02*
G37*
G36*
X387500Y391534D02*
X388544Y391397D01*
X389517Y390994D01*
X390353Y390353D01*
X390994Y389517D01*
X391397Y388544D01*
X391534Y387500D01*
X391397Y386456D01*
X390994Y385483D01*
X390353Y384647D01*
X389517Y384006D01*
X388544Y383603D01*
X387500Y383466D01*
X386456Y383603D01*
X385483Y384006D01*
X384647Y384647D01*
X384006Y385483D01*
X383603Y386456D01*
X383466Y387500D01*
X383603Y388544D01*
X384006Y389517D01*
X384647Y390353D01*
X385483Y390994D01*
X386456Y391397D01*
X387500Y391534D01*
D02*
G37*
G36*
X292000Y358450D02*
X293161Y358336D01*
X294277Y357997D01*
X295306Y357447D01*
X296207Y356707D01*
X296947Y355806D01*
X297497Y354777D01*
X297836Y353661D01*
X297950Y352500D01*
X297836Y351339D01*
X297497Y350223D01*
X296947Y349194D01*
X296207Y348293D01*
X295306Y347553D01*
X294277Y347003D01*
X293161Y346664D01*
X292000Y346550D01*
X290839Y346664D01*
X289723Y347003D01*
X288694Y347553D01*
X287793Y348293D01*
X287053Y349194D01*
X286503Y350223D01*
X286164Y351339D01*
X286050Y352500D01*
X286164Y353661D01*
X286503Y354777D01*
X287053Y355806D01*
X287793Y356707D01*
X288694Y357447D01*
X289723Y357997D01*
X290839Y358336D01*
X292000Y358450D01*
D02*
G37*
G36*
X440500D02*
X441661Y358336D01*
X442777Y357997D01*
X443806Y357447D01*
X444707Y356707D01*
X445447Y355806D01*
X445997Y354777D01*
X446336Y353661D01*
X446450Y352500D01*
X446336Y351339D01*
X445997Y350223D01*
X445447Y349194D01*
X444707Y348293D01*
X443806Y347553D01*
X442777Y347003D01*
X441661Y346664D01*
X440500Y346550D01*
X439339Y346664D01*
X438223Y347003D01*
X437194Y347553D01*
X436293Y348293D01*
X435553Y349194D01*
X435003Y350223D01*
X434664Y351339D01*
X434550Y352500D01*
X434664Y353661D01*
X435003Y354777D01*
X435553Y355806D01*
X436293Y356707D01*
X437194Y357447D01*
X438223Y357997D01*
X439339Y358336D01*
X440500Y358450D01*
D02*
G37*
G36*
X422500Y369933D02*
X423950Y369791D01*
X425345Y369368D01*
X426630Y368681D01*
X427756Y367756D01*
X428681Y366630D01*
X429368Y365345D01*
X429791Y363950D01*
X429933Y362500D01*
X429791Y361050D01*
X429368Y359655D01*
X428681Y358370D01*
X427756Y357244D01*
X426630Y356319D01*
X425345Y355632D01*
X423950Y355209D01*
X422500Y355067D01*
X421050Y355209D01*
X419655Y355632D01*
X418370Y356319D01*
X417244Y357244D01*
X416319Y358370D01*
X415632Y359655D01*
X415209Y361050D01*
X415067Y362500D01*
X415209Y363950D01*
X415632Y365345D01*
X416319Y366630D01*
X417244Y367756D01*
X418370Y368681D01*
X419655Y369368D01*
X421050Y369791D01*
X422500Y369933D01*
D02*
G37*
G36*
X310000D02*
X311450Y369791D01*
X312845Y369368D01*
X314130Y368681D01*
X315256Y367756D01*
X316181Y366630D01*
X316868Y365345D01*
X317291Y363950D01*
X317433Y362500D01*
X317291Y361050D01*
X316868Y359655D01*
X316181Y358370D01*
X315256Y357244D01*
X314130Y356319D01*
X312845Y355632D01*
X311450Y355209D01*
X310000Y355067D01*
X308550Y355209D01*
X307155Y355632D01*
X305870Y356319D01*
X304744Y357244D01*
X303819Y358370D01*
X303132Y359655D01*
X302709Y361050D01*
X302567Y362500D01*
X302709Y363950D01*
X303132Y365345D01*
X303819Y366630D01*
X304744Y367756D01*
X305870Y368681D01*
X307155Y369368D01*
X308550Y369791D01*
X310000Y369933D01*
D02*
G37*
%LPD*%
G36*
X295140Y241557D02*
X296194D01*
X298978Y248217D01*
X297896D01*
X295140Y241557D01*
D02*
G37*
G36*
X331520Y246672D02*
X331363Y246653D01*
X331215Y246625D01*
X331076Y246588D01*
X330956Y246542D01*
X330836Y246487D01*
X330725Y246431D01*
X330623Y246376D01*
X330530Y246320D01*
X330456Y246265D01*
X330382Y246209D01*
X330327Y246163D01*
X330280Y246126D01*
X330253Y246098D01*
X330234Y246080D01*
X330225Y246071D01*
X330123Y245950D01*
X330040Y245830D01*
X329957Y245701D01*
X329892Y245562D01*
X329837Y245432D01*
X329790Y245303D01*
X329726Y245044D01*
X329698Y244933D01*
X329679Y244822D01*
X329670Y244729D01*
X329661Y244646D01*
X329651Y244572D01*
Y244526D01*
Y244489D01*
Y244479D01*
X329661Y244304D01*
X329679Y244137D01*
X329698Y243971D01*
X329735Y243832D01*
X329772Y243693D01*
X329818Y243564D01*
X329873Y243453D01*
X329920Y243351D01*
X329966Y243259D01*
X330022Y243175D01*
X330068Y243110D01*
X330105Y243055D01*
X330142Y243009D01*
X330170Y242981D01*
X330179Y242963D01*
X330188Y242953D01*
X330299Y242861D01*
X330410Y242777D01*
X330530Y242704D01*
X330660Y242639D01*
X330780Y242583D01*
X330909Y242537D01*
X331150Y242472D01*
X331261Y242454D01*
X331372Y242435D01*
X331465Y242426D01*
X331548Y242417D01*
X331612Y242407D01*
X331705D01*
X332029Y242417D01*
X332177Y242435D01*
X332315Y242454D01*
X332445Y242481D01*
X332565Y242500D01*
X332676Y242528D01*
X332778Y242565D01*
X332871Y242593D01*
X332954Y242620D01*
X333018Y242639D01*
X333074Y242667D01*
X333120Y242685D01*
X333148Y242704D01*
X333167Y242713D01*
X333176D01*
Y243582D01*
X332972Y243471D01*
X332769Y243388D01*
X332565Y243333D01*
X332380Y243296D01*
X332214Y243268D01*
X332149Y243259D01*
X332084D01*
X332038Y243249D01*
X331973D01*
X331779Y243259D01*
X331612Y243286D01*
X331465Y243342D01*
X331335Y243397D01*
X331233Y243471D01*
X331141Y243554D01*
X331058Y243638D01*
X331002Y243730D01*
X330946Y243813D01*
X330909Y243897D01*
X330882Y243980D01*
X330863Y244054D01*
X330845Y244119D01*
Y244165D01*
X330836Y244193D01*
Y244202D01*
X333518D01*
Y244711D01*
X333509Y244877D01*
X333500Y245035D01*
X333472Y245182D01*
X333444Y245321D01*
X333407Y245451D01*
X333361Y245571D01*
X333314Y245682D01*
X333278Y245775D01*
X333231Y245867D01*
X333185Y245941D01*
X333139Y246006D01*
X333102Y246061D01*
X333074Y246098D01*
X333046Y246126D01*
X333037Y246145D01*
X333028Y246154D01*
X332935Y246246D01*
X332834Y246329D01*
X332722Y246394D01*
X332611Y246459D01*
X332501Y246515D01*
X332389Y246551D01*
X332177Y246616D01*
X332075Y246635D01*
X331982Y246653D01*
X331890Y246662D01*
X331825Y246672D01*
X331761Y246681D01*
X331677D01*
X331520Y246672D01*
D02*
G37*
G36*
X324499Y242500D02*
X325693D01*
Y246579D01*
X324499D01*
Y242500D01*
D02*
G37*
G36*
X355801Y246672D02*
X355616Y246653D01*
X355450Y246625D01*
X355293Y246588D01*
X355145Y246542D01*
X355006Y246487D01*
X354886Y246441D01*
X354774Y246385D01*
X354673Y246320D01*
X354580Y246274D01*
X354506Y246218D01*
X354441Y246172D01*
X354395Y246135D01*
X354358Y246108D01*
X354340Y246089D01*
X354330Y246080D01*
X354220Y245959D01*
X354127Y245839D01*
X354044Y245710D01*
X353970Y245571D01*
X353914Y245432D01*
X353859Y245293D01*
X353785Y245035D01*
X353766Y244914D01*
X353748Y244803D01*
X353729Y244702D01*
X353720Y244618D01*
X353711Y244544D01*
Y244489D01*
Y244452D01*
Y244443D01*
X353720Y244276D01*
X353738Y244119D01*
X353766Y243971D01*
X353803Y243832D01*
X353840Y243703D01*
X353896Y243582D01*
X353942Y243471D01*
X353997Y243370D01*
X354053Y243277D01*
X354099Y243203D01*
X354155Y243129D01*
X354192Y243074D01*
X354229Y243027D01*
X354257Y243000D01*
X354275Y242981D01*
X354284Y242972D01*
X354395Y242870D01*
X354516Y242787D01*
X354636Y242713D01*
X354765Y242648D01*
X354895Y242593D01*
X355015Y242546D01*
X355256Y242481D01*
X355366Y242454D01*
X355468Y242435D01*
X355561Y242426D01*
X355644Y242417D01*
X355709Y242407D01*
X355801D01*
X356079Y242417D01*
X356319Y242444D01*
X356532Y242481D01*
X356698Y242528D01*
X356772Y242546D01*
X356837Y242574D01*
X356893Y242593D01*
X356939Y242611D01*
X356967Y242630D01*
X356995Y242639D01*
X357004Y242648D01*
X357013D01*
Y243619D01*
X356846Y243517D01*
X356680Y243443D01*
X356523Y243388D01*
X356384Y243351D01*
X356264Y243333D01*
X356171Y243323D01*
X356134Y243314D01*
X356088D01*
X355894Y243333D01*
X355727Y243370D01*
X355579Y243416D01*
X355450Y243480D01*
X355357Y243536D01*
X355283Y243591D01*
X355246Y243629D01*
X355228Y243638D01*
X355126Y243767D01*
X355043Y243915D01*
X354987Y244054D01*
X354950Y244202D01*
X354932Y244322D01*
X354923Y244424D01*
X354913Y244461D01*
Y244489D01*
Y244507D01*
Y244516D01*
X354932Y244720D01*
X354969Y244905D01*
X355015Y245062D01*
X355080Y245192D01*
X355145Y245293D01*
X355191Y245368D01*
X355228Y245414D01*
X355246Y245432D01*
X355376Y245543D01*
X355524Y245626D01*
X355672Y245682D01*
X355810Y245728D01*
X355931Y245747D01*
X356032Y245756D01*
X356069Y245765D01*
X356125D01*
X356301Y245756D01*
X356467Y245719D01*
X356625Y245673D01*
X356754Y245617D01*
X356865Y245562D01*
X356948Y245515D01*
X357004Y245479D01*
X357022Y245469D01*
Y246487D01*
X356884Y246551D01*
X356717Y246598D01*
X356541Y246635D01*
X356375Y246653D01*
X356227Y246672D01*
X356162D01*
X356097Y246681D01*
X355986D01*
X355801Y246672D01*
D02*
G37*
G36*
X298720Y241557D02*
X299774D01*
X302558Y248217D01*
X301476D01*
X298720Y241557D01*
D02*
G37*
G36*
X327043Y247477D02*
Y246579D01*
X326377D01*
Y245691D01*
X327043D01*
Y243767D01*
X327062Y243527D01*
X327098Y243323D01*
X327163Y243138D01*
X327246Y242981D01*
X327348Y242851D01*
X327459Y242741D01*
X327570Y242648D01*
X327700Y242574D01*
X327820Y242518D01*
X327931Y242481D01*
X328042Y242454D01*
X328144Y242426D01*
X328227Y242417D01*
X328292Y242407D01*
X328347D01*
X328541Y242417D01*
X328708Y242426D01*
X328847Y242454D01*
X328958Y242481D01*
X329050Y242500D01*
X329115Y242528D01*
X329152Y242537D01*
X329161Y242546D01*
Y243434D01*
X329087Y243397D01*
X329004Y243370D01*
X328939Y243342D01*
X328874Y243333D01*
X328828Y243323D01*
X328791Y243314D01*
X328754D01*
X328662Y243323D01*
X328588Y243342D01*
X328514Y243379D01*
X328458Y243416D01*
X328366Y243517D01*
X328301Y243647D01*
X328264Y243767D01*
X328245Y243869D01*
X328236Y243906D01*
Y243943D01*
Y243962D01*
Y243971D01*
Y245691D01*
X329161D01*
Y246579D01*
X328236D01*
Y247819D01*
X327043Y247477D01*
D02*
G37*
G36*
X342342Y244119D02*
Y243962D01*
X342361Y243813D01*
X342379Y243684D01*
X342407Y243554D01*
X342472Y243323D01*
X342565Y243129D01*
X342675Y242963D01*
X342796Y242824D01*
X342925Y242713D01*
X343064Y242620D01*
X343194Y242555D01*
X343323Y242500D01*
X343443Y242463D01*
X343554Y242435D01*
X343647Y242417D01*
X343711Y242407D01*
X343776D01*
X343924Y242417D01*
X344054Y242435D01*
X344183Y242472D01*
X344303Y242518D01*
X344516Y242630D01*
X344692Y242768D01*
X344775Y242833D01*
X344840Y242898D01*
X344896Y242953D01*
X344942Y243009D01*
X344979Y243055D01*
X345006Y243092D01*
X345016Y243110D01*
X345025Y243120D01*
X345043D01*
Y242500D01*
X346228D01*
Y246579D01*
X345043D01*
Y244239D01*
X345034Y244091D01*
X345006Y243952D01*
X344979Y243841D01*
X344942Y243740D01*
X344896Y243666D01*
X344868Y243610D01*
X344840Y243573D01*
X344831Y243564D01*
X344747Y243480D01*
X344655Y243416D01*
X344553Y243379D01*
X344461Y243342D01*
X344387Y243323D01*
X344313Y243314D01*
X344257D01*
X344128Y243323D01*
X344017Y243351D01*
X343924Y243397D01*
X343841Y243462D01*
X343767Y243527D01*
X343711Y243601D01*
X343665Y243684D01*
X343628Y243776D01*
X343573Y243943D01*
X343554Y244017D01*
X343545Y244091D01*
Y244146D01*
X343536Y244193D01*
Y244220D01*
Y244230D01*
Y246579D01*
X342342D01*
Y244119D01*
D02*
G37*
G36*
X336441Y246644D02*
X336312Y246616D01*
X336191Y246579D01*
X336080Y246524D01*
X335988Y246459D01*
X335895Y246385D01*
X335821Y246311D01*
X335756Y246237D01*
X335646Y246080D01*
X335599Y246006D01*
X335562Y245941D01*
X335544Y245885D01*
X335525Y245848D01*
X335507Y245821D01*
Y245812D01*
X335488D01*
Y246579D01*
X334295D01*
Y242500D01*
X335488D01*
Y244461D01*
X335497Y244655D01*
X335525Y244822D01*
X335562Y244970D01*
X335609Y245090D01*
X335655Y245182D01*
X335692Y245256D01*
X335719Y245293D01*
X335729Y245312D01*
X335830Y245414D01*
X335932Y245497D01*
X336043Y245552D01*
X336145Y245589D01*
X336238Y245608D01*
X336312Y245626D01*
X336376D01*
X336487Y245617D01*
X336589Y245608D01*
X336682Y245589D01*
X336755Y245562D01*
X336820Y245534D01*
X336866Y245515D01*
X336894Y245506D01*
X336904Y245497D01*
Y246607D01*
X336857Y246625D01*
X336811Y246635D01*
X336700Y246644D01*
X336654Y246653D01*
X336580D01*
X336441Y246644D01*
D02*
G37*
G36*
X322788Y243656D02*
X322695Y243638D01*
X322612Y243610D01*
X322538Y243573D01*
X322474Y243536D01*
X322427Y243508D01*
X322399Y243490D01*
X322390Y243480D01*
X322316Y243407D01*
X322270Y243333D01*
X322233Y243259D01*
X322205Y243184D01*
X322187Y243129D01*
X322178Y243074D01*
Y243037D01*
Y243027D01*
X322187Y242935D01*
X322205Y242842D01*
X322242Y242768D01*
X322279Y242704D01*
X322316Y242657D01*
X322353Y242611D01*
X322372Y242593D01*
X322381Y242583D01*
X322464Y242528D01*
X322548Y242481D01*
X322631Y242454D01*
X322714Y242426D01*
X322779Y242417D01*
X322834Y242407D01*
X322881D01*
X322991Y242417D01*
X323093Y242435D01*
X323177Y242463D01*
X323251Y242491D01*
X323306Y242518D01*
X323352Y242546D01*
X323380Y242565D01*
X323389Y242574D01*
X323454Y242648D01*
X323510Y242722D01*
X323547Y242796D01*
X323565Y242870D01*
X323584Y242935D01*
X323593Y242981D01*
Y243018D01*
Y243027D01*
X323584Y243129D01*
X323565Y243212D01*
X323528Y243296D01*
X323491Y243360D01*
X323454Y243407D01*
X323417Y243453D01*
X323398Y243471D01*
X323389Y243480D01*
X323306Y243545D01*
X323223Y243591D01*
X323149Y243619D01*
X323065Y243647D01*
X323001Y243656D01*
X322945Y243666D01*
X322899D01*
X322788Y243656D01*
D02*
G37*
G36*
X294122D02*
X294030Y243638D01*
X293947Y243610D01*
X293872Y243573D01*
X293808Y243536D01*
X293761Y243508D01*
X293734Y243490D01*
X293724Y243480D01*
X293651Y243407D01*
X293604Y243333D01*
X293567Y243259D01*
X293540Y243184D01*
X293521Y243129D01*
X293512Y243074D01*
Y243037D01*
Y243027D01*
X293521Y242935D01*
X293540Y242842D01*
X293577Y242768D01*
X293614Y242704D01*
X293651Y242657D01*
X293688Y242611D01*
X293706Y242593D01*
X293715Y242583D01*
X293798Y242528D01*
X293882Y242481D01*
X293965Y242454D01*
X294048Y242426D01*
X294113Y242417D01*
X294168Y242407D01*
X294215D01*
X294326Y242417D01*
X294427Y242435D01*
X294511Y242463D01*
X294585Y242491D01*
X294640Y242518D01*
X294687Y242546D01*
X294714Y242565D01*
X294724Y242574D01*
X294788Y242648D01*
X294844Y242722D01*
X294881Y242796D01*
X294899Y242870D01*
X294918Y242935D01*
X294927Y242981D01*
Y243018D01*
Y243027D01*
X294918Y243129D01*
X294899Y243212D01*
X294862Y243296D01*
X294825Y243360D01*
X294788Y243407D01*
X294751Y243453D01*
X294733Y243471D01*
X294724Y243480D01*
X294640Y243545D01*
X294557Y243591D01*
X294483Y243619D01*
X294400Y243647D01*
X294335Y243656D01*
X294280Y243666D01*
X294233D01*
X294122Y243656D01*
D02*
G37*
G36*
X349530Y242500D02*
X350723D01*
Y248540D01*
X349530D01*
Y242500D01*
D02*
G37*
G36*
X352221Y243656D02*
X352129Y243638D01*
X352046Y243610D01*
X351972Y243573D01*
X351907Y243536D01*
X351861Y243508D01*
X351833Y243490D01*
X351824Y243480D01*
X351750Y243407D01*
X351704Y243333D01*
X351666Y243259D01*
X351639Y243184D01*
X351620Y243129D01*
X351611Y243074D01*
Y243037D01*
Y243027D01*
X351620Y242935D01*
X351639Y242842D01*
X351676Y242768D01*
X351713Y242704D01*
X351750Y242657D01*
X351787Y242611D01*
X351805Y242593D01*
X351815Y242583D01*
X351898Y242528D01*
X351981Y242481D01*
X352064Y242454D01*
X352148Y242426D01*
X352212Y242417D01*
X352268Y242407D01*
X352314D01*
X352425Y242417D01*
X352527Y242435D01*
X352610Y242463D01*
X352684Y242491D01*
X352740Y242518D01*
X352786Y242546D01*
X352814Y242565D01*
X352823Y242574D01*
X352888Y242648D01*
X352943Y242722D01*
X352980Y242796D01*
X352998Y242870D01*
X353017Y242935D01*
X353026Y242981D01*
Y243018D01*
Y243027D01*
X353017Y243129D01*
X352998Y243212D01*
X352961Y243296D01*
X352924Y243360D01*
X352888Y243407D01*
X352851Y243453D01*
X352832Y243471D01*
X352823Y243480D01*
X352740Y243545D01*
X352656Y243591D01*
X352582Y243619D01*
X352499Y243647D01*
X352434Y243656D01*
X352379Y243666D01*
X352332D01*
X352221Y243656D01*
D02*
G37*
G36*
X339873Y246672D02*
X339725Y246653D01*
X339586Y246616D01*
X339457Y246561D01*
X339336Y246505D01*
X339234Y246441D01*
X339133Y246376D01*
X339050Y246311D01*
X338966Y246237D01*
X338901Y246172D01*
X338846Y246108D01*
X338800Y246052D01*
X338763Y246006D01*
X338735Y245969D01*
X338726Y245941D01*
X338717Y245932D01*
X338698D01*
Y246579D01*
X337505D01*
Y242500D01*
X338698D01*
Y244831D01*
X338707Y244979D01*
X338735Y245109D01*
X338772Y245219D01*
X338809Y245321D01*
X338846Y245395D01*
X338883Y245451D01*
X338911Y245488D01*
X338920Y245497D01*
X339013Y245589D01*
X339105Y245654D01*
X339207Y245701D01*
X339290Y245728D01*
X339373Y245756D01*
X339438Y245765D01*
X339493D01*
X339623Y245756D01*
X339725Y245719D01*
X339826Y245673D01*
X339910Y245608D01*
X339974Y245534D01*
X340030Y245451D01*
X340076Y245368D01*
X340113Y245275D01*
X340169Y245090D01*
X340187Y245007D01*
X340196Y244933D01*
X340206Y244868D01*
Y244822D01*
Y244785D01*
Y244776D01*
Y242500D01*
X341390D01*
Y244998D01*
Y245155D01*
X341371Y245293D01*
X341353Y245432D01*
X341334Y245552D01*
X341260Y245775D01*
X341177Y245969D01*
X341075Y246135D01*
X340964Y246274D01*
X340835Y246385D01*
X340715Y246468D01*
X340585Y246542D01*
X340465Y246588D01*
X340345Y246625D01*
X340243Y246653D01*
X340160Y246672D01*
X340086Y246681D01*
X340030D01*
X339873Y246672D01*
D02*
G37*
G36*
X347291Y242500D02*
X348484D01*
Y248540D01*
X347291D01*
Y242500D01*
D02*
G37*
G36*
X359668Y246672D02*
X359492Y246653D01*
X359326Y246625D01*
X359168Y246588D01*
X359020Y246542D01*
X358891Y246496D01*
X358761Y246441D01*
X358650Y246394D01*
X358558Y246339D01*
X358465Y246283D01*
X358391Y246237D01*
X358336Y246191D01*
X358290Y246154D01*
X358253Y246126D01*
X358234Y246108D01*
X358225Y246098D01*
X358123Y245987D01*
X358031Y245867D01*
X357947Y245738D01*
X357873Y245608D01*
X357818Y245479D01*
X357771Y245349D01*
X357698Y245090D01*
X357670Y244979D01*
X357651Y244868D01*
X357642Y244766D01*
X357633Y244683D01*
X357624Y244609D01*
Y244563D01*
Y244526D01*
Y244516D01*
X357633Y244341D01*
X357651Y244165D01*
X357679Y244008D01*
X357716Y243860D01*
X357762Y243721D01*
X357808Y243601D01*
X357864Y243480D01*
X357920Y243379D01*
X357966Y243286D01*
X358021Y243203D01*
X358067Y243129D01*
X358114Y243074D01*
X358151Y243027D01*
X358178Y243000D01*
X358197Y242981D01*
X358206Y242972D01*
X358317Y242870D01*
X358437Y242787D01*
X358567Y242713D01*
X358697Y242648D01*
X358835Y242593D01*
X358965Y242546D01*
X359214Y242481D01*
X359335Y242454D01*
X359446Y242435D01*
X359538Y242426D01*
X359622Y242417D01*
X359696Y242407D01*
X359788D01*
X359973Y242417D01*
X360149Y242435D01*
X360315Y242463D01*
X360472Y242500D01*
X360611Y242546D01*
X360741Y242593D01*
X360861Y242648D01*
X360972Y242704D01*
X361074Y242750D01*
X361157Y242805D01*
X361231Y242851D01*
X361286Y242898D01*
X361333Y242935D01*
X361370Y242963D01*
X361388Y242981D01*
X361398Y242990D01*
X361499Y243110D01*
X361592Y243231D01*
X361675Y243360D01*
X361749Y243490D01*
X361805Y243629D01*
X361851Y243758D01*
X361925Y244017D01*
X361952Y244128D01*
X361971Y244239D01*
X361980Y244341D01*
X361989Y244424D01*
X361999Y244498D01*
Y244544D01*
Y244581D01*
Y244590D01*
X361989Y244766D01*
X361971Y244933D01*
X361943Y245081D01*
X361906Y245229D01*
X361860Y245368D01*
X361814Y245488D01*
X361758Y245608D01*
X361712Y245710D01*
X361656Y245802D01*
X361601Y245876D01*
X361555Y245950D01*
X361508Y246006D01*
X361472Y246052D01*
X361444Y246080D01*
X361425Y246098D01*
X361416Y246108D01*
X361305Y246209D01*
X361185Y246292D01*
X361055Y246376D01*
X360926Y246441D01*
X360796Y246496D01*
X360667Y246542D01*
X360417Y246607D01*
X360297Y246635D01*
X360195Y246653D01*
X360103Y246662D01*
X360019Y246672D01*
X359945Y246681D01*
X359853D01*
X359668Y246672D01*
D02*
G37*
G36*
X326529Y374211D02*
X327029Y373936D01*
X327500Y374029D01*
X334675D01*
X334835Y374503D01*
X334647Y374647D01*
X334006Y375483D01*
X333603Y376456D01*
X333466Y377500D01*
X333603Y378544D01*
X334006Y379517D01*
X334647Y380353D01*
X334835Y380497D01*
X334675Y380971D01*
X326529D01*
Y374211D01*
D02*
G37*
G36*
X324999Y248513D02*
X324897Y248494D01*
X324814Y248466D01*
X324749Y248439D01*
X324684Y248401D01*
X324647Y248374D01*
X324620Y248355D01*
X324610Y248346D01*
X324546Y248281D01*
X324499Y248207D01*
X324462Y248124D01*
X324444Y248059D01*
X324425Y247994D01*
X324416Y247948D01*
Y247911D01*
Y247902D01*
X324425Y247810D01*
X324444Y247717D01*
X324481Y247643D01*
X324518Y247578D01*
X324546Y247523D01*
X324583Y247486D01*
X324601Y247458D01*
X324610Y247449D01*
X324684Y247393D01*
X324767Y247347D01*
X324851Y247319D01*
X324925Y247291D01*
X324999Y247282D01*
X325054Y247273D01*
X325100D01*
X325212Y247282D01*
X325304Y247301D01*
X325396Y247328D01*
X325461Y247365D01*
X325526Y247393D01*
X325563Y247421D01*
X325591Y247440D01*
X325600Y247449D01*
X325665Y247523D01*
X325711Y247597D01*
X325748Y247671D01*
X325766Y247745D01*
X325785Y247810D01*
X325794Y247856D01*
Y247893D01*
Y247902D01*
X325785Y247994D01*
X325766Y248087D01*
X325729Y248161D01*
X325702Y248226D01*
X325665Y248272D01*
X325628Y248318D01*
X325609Y248337D01*
X325600Y248346D01*
X325526Y248401D01*
X325443Y248448D01*
X325360Y248476D01*
X325286Y248503D01*
X325212Y248513D01*
X325156Y248522D01*
X325100D01*
X324999Y248513D01*
D02*
G37*
G36*
X277491Y242500D02*
X278684D01*
Y244822D01*
X278693Y244970D01*
X278721Y245099D01*
X278758Y245219D01*
X278795Y245312D01*
X278832Y245395D01*
X278869Y245451D01*
X278897Y245488D01*
X278906Y245497D01*
X278998Y245589D01*
X279091Y245654D01*
X279193Y245701D01*
X279276Y245728D01*
X279359Y245756D01*
X279424Y245765D01*
X279480D01*
X279600Y245756D01*
X279701Y245728D01*
X279794Y245682D01*
X279877Y245617D01*
X279942Y245543D01*
X279997Y245469D01*
X280044Y245386D01*
X280081Y245293D01*
X280127Y245118D01*
X280146Y245044D01*
X280155Y244970D01*
X280164Y244905D01*
Y244859D01*
Y244831D01*
Y244822D01*
Y242500D01*
X281357D01*
Y245007D01*
Y245155D01*
X281339Y245303D01*
X281302Y245562D01*
X281228Y245784D01*
X281135Y245978D01*
X281033Y246135D01*
X280913Y246274D01*
X280793Y246385D01*
X280663Y246468D01*
X280525Y246542D01*
X280404Y246588D01*
X280284Y246635D01*
X280183Y246653D01*
X280090Y246672D01*
X280025Y246681D01*
X279960D01*
X279813Y246672D01*
X279683Y246653D01*
X279554Y246616D01*
X279433Y246570D01*
X279221Y246459D01*
X279035Y246329D01*
X278961Y246255D01*
X278897Y246191D01*
X278832Y246135D01*
X278786Y246080D01*
X278749Y246034D01*
X278721Y245996D01*
X278712Y245978D01*
X278702Y245969D01*
X278684D01*
Y248540D01*
X277491D01*
Y242500D01*
D02*
G37*
G36*
X304029Y315325D02*
X304503Y315165D01*
X304647Y315353D01*
X305483Y315994D01*
X305971Y316196D01*
Y335000D01*
X306064Y335471D01*
X305789Y335971D01*
X304029D01*
Y315325D01*
D02*
G37*
G36*
X299029Y316196D02*
X299517Y315994D01*
X300353Y315353D01*
X300497Y315165D01*
X300971Y315325D01*
Y337500D01*
X301064Y337971D01*
X300789Y338471D01*
X299029D01*
Y316196D01*
D02*
G37*
G36*
X401436Y332971D02*
X401529Y332500D01*
Y316196D01*
X402017Y315994D01*
X402853Y315353D01*
X402997Y315165D01*
X403471Y315325D01*
Y333471D01*
X401711D01*
X401436Y332971D01*
D02*
G37*
G36*
X406436Y335471D02*
X406529Y335000D01*
Y315325D01*
X407003Y315165D01*
X407147Y315353D01*
X407983Y315994D01*
X408471Y316196D01*
Y335971D01*
X406711D01*
X406436Y335471D01*
D02*
G37*
G36*
X365218Y246672D02*
X365088Y246653D01*
X364959Y246616D01*
X364848Y246588D01*
X364755Y246551D01*
X364681Y246515D01*
X364635Y246496D01*
X364616Y246487D01*
X364496Y246404D01*
X364376Y246320D01*
X364283Y246228D01*
X364200Y246145D01*
X364136Y246061D01*
X364089Y245996D01*
X364061Y245959D01*
X364052Y245941D01*
X364034D01*
Y246579D01*
X362841D01*
Y242500D01*
X364034D01*
Y244776D01*
X364043Y244933D01*
X364061Y245072D01*
X364099Y245192D01*
X364136Y245303D01*
X364173Y245377D01*
X364210Y245442D01*
X364228Y245479D01*
X364237Y245488D01*
X364320Y245580D01*
X364404Y245645D01*
X364496Y245701D01*
X364580Y245728D01*
X364653Y245747D01*
X364718Y245765D01*
X364774D01*
X364894Y245756D01*
X364996Y245728D01*
X365088Y245682D01*
X365162Y245626D01*
X365227Y245552D01*
X365283Y245479D01*
X365329Y245395D01*
X365366Y245312D01*
X365412Y245146D01*
X365430Y245072D01*
X365440Y244998D01*
X365449Y244942D01*
Y244896D01*
Y244868D01*
Y244859D01*
Y242500D01*
X366642D01*
Y244785D01*
X366652Y244933D01*
X366670Y245062D01*
X366707Y245182D01*
X366744Y245284D01*
X366781Y245368D01*
X366818Y245432D01*
X366837Y245469D01*
X366846Y245479D01*
X366929Y245571D01*
X367021Y245645D01*
X367105Y245691D01*
X367197Y245728D01*
X367271Y245747D01*
X367327Y245765D01*
X367382D01*
X367502Y245756D01*
X367604Y245728D01*
X367697Y245682D01*
X367780Y245617D01*
X367845Y245552D01*
X367900Y245469D01*
X367947Y245386D01*
X367984Y245303D01*
X368030Y245127D01*
X368048Y245044D01*
X368057Y244979D01*
X368067Y244914D01*
Y244868D01*
Y244840D01*
Y244831D01*
Y242500D01*
X369251D01*
Y245035D01*
Y245182D01*
X369232Y245321D01*
X369195Y245580D01*
X369130Y245802D01*
X369047Y245987D01*
X368946Y246145D01*
X368825Y246283D01*
X368705Y246385D01*
X368585Y246478D01*
X368464Y246542D01*
X368344Y246598D01*
X368224Y246635D01*
X368131Y246653D01*
X368039Y246672D01*
X367974Y246681D01*
X367919D01*
X367752Y246672D01*
X367604Y246644D01*
X367456Y246607D01*
X367327Y246561D01*
X367197Y246505D01*
X367086Y246441D01*
X366985Y246367D01*
X366892Y246302D01*
X366809Y246228D01*
X366744Y246154D01*
X366679Y246089D01*
X366633Y246034D01*
X366587Y245987D01*
X366559Y245950D01*
X366550Y245922D01*
X366541Y245913D01*
X366476Y246052D01*
X366402Y246163D01*
X366318Y246274D01*
X366226Y246357D01*
X366133Y246431D01*
X366032Y246496D01*
X365930Y246542D01*
X365838Y246588D01*
X365652Y246644D01*
X365579Y246653D01*
X365505Y246672D01*
X365449D01*
X365403Y246681D01*
X365366D01*
X365218Y246672D01*
D02*
G37*
G36*
X316590Y242500D02*
X317830D01*
X318505Y244960D01*
X318542Y245127D01*
X318551Y245201D01*
X318561Y245284D01*
X318570Y245349D01*
X318579Y245405D01*
Y245442D01*
Y245451D01*
X318607D01*
X318625Y245266D01*
X318635Y245182D01*
X318644Y245109D01*
X318653Y245044D01*
X318663Y244998D01*
X318672Y244960D01*
Y244951D01*
X319301Y242500D01*
X320559D01*
X321733Y246579D01*
X320633D01*
X320059Y243869D01*
X320031Y243693D01*
X320022Y243610D01*
X320013Y243545D01*
X320004Y243490D01*
X319994Y243453D01*
Y243425D01*
Y243416D01*
X319967D01*
X319957Y243536D01*
X319948Y243629D01*
X319939Y243712D01*
X319930Y243767D01*
X319920Y243813D01*
Y243850D01*
X319911Y243860D01*
Y243869D01*
X319254Y246579D01*
X318126D01*
X317395Y243887D01*
X317368Y243730D01*
X317349Y243582D01*
X317340Y243517D01*
X317331Y243471D01*
Y243434D01*
Y243425D01*
X317303D01*
X317294Y243527D01*
X317284Y243619D01*
X317266Y243693D01*
X317256Y243758D01*
X317247Y243804D01*
Y243841D01*
X317238Y243860D01*
Y243869D01*
X316646Y246579D01*
X315425D01*
X316590Y242500D01*
D02*
G37*
G36*
X282662Y247477D02*
Y246579D01*
X281996D01*
Y245691D01*
X282662D01*
Y243767D01*
X282680Y243527D01*
X282717Y243323D01*
X282782Y243138D01*
X282865Y242981D01*
X282967Y242851D01*
X283078Y242741D01*
X283189Y242648D01*
X283318Y242574D01*
X283438Y242518D01*
X283549Y242481D01*
X283661Y242454D01*
X283762Y242426D01*
X283845Y242417D01*
X283910Y242407D01*
X283966D01*
X284160Y242417D01*
X284327Y242426D01*
X284465Y242454D01*
X284576Y242481D01*
X284669Y242500D01*
X284734Y242528D01*
X284770Y242537D01*
X284780Y242546D01*
Y243434D01*
X284706Y243397D01*
X284623Y243370D01*
X284558Y243342D01*
X284493Y243333D01*
X284447Y243323D01*
X284410Y243314D01*
X284373D01*
X284280Y243323D01*
X284206Y243342D01*
X284132Y243379D01*
X284077Y243416D01*
X283984Y243517D01*
X283920Y243647D01*
X283882Y243767D01*
X283864Y243869D01*
X283855Y243906D01*
Y243943D01*
Y243962D01*
Y243971D01*
Y245691D01*
X284780D01*
Y246579D01*
X283855D01*
Y247819D01*
X282662Y247477D01*
D02*
G37*
G36*
X285797D02*
Y246579D01*
X285131D01*
Y245691D01*
X285797D01*
Y243767D01*
X285816Y243527D01*
X285853Y243323D01*
X285917Y243138D01*
X286001Y242981D01*
X286103Y242851D01*
X286213Y242741D01*
X286325Y242648D01*
X286454Y242574D01*
X286574Y242518D01*
X286685Y242481D01*
X286796Y242454D01*
X286898Y242426D01*
X286981Y242417D01*
X287046Y242407D01*
X287102D01*
X287296Y242417D01*
X287462Y242426D01*
X287601Y242454D01*
X287712Y242481D01*
X287805Y242500D01*
X287869Y242528D01*
X287906Y242537D01*
X287915Y242546D01*
Y243434D01*
X287842Y243397D01*
X287758Y243370D01*
X287694Y243342D01*
X287629Y243333D01*
X287582Y243323D01*
X287545Y243314D01*
X287509D01*
X287416Y243323D01*
X287342Y243342D01*
X287268Y243379D01*
X287212Y243416D01*
X287120Y243517D01*
X287055Y243647D01*
X287018Y243767D01*
X287000Y243869D01*
X286990Y243906D01*
Y243943D01*
Y243962D01*
Y243971D01*
Y245691D01*
X287915D01*
Y246579D01*
X286990D01*
Y247819D01*
X285797Y247477D01*
D02*
G37*
G36*
X310143Y242500D02*
X311383D01*
X312058Y244960D01*
X312095Y245127D01*
X312104Y245201D01*
X312113Y245284D01*
X312123Y245349D01*
X312132Y245405D01*
Y245442D01*
Y245451D01*
X312160D01*
X312178Y245266D01*
X312188Y245182D01*
X312197Y245109D01*
X312206Y245044D01*
X312215Y244998D01*
X312225Y244960D01*
Y244951D01*
X312854Y242500D01*
X314111D01*
X315286Y246579D01*
X314186D01*
X313612Y243869D01*
X313584Y243693D01*
X313575Y243610D01*
X313566Y243545D01*
X313557Y243490D01*
X313547Y243453D01*
Y243425D01*
Y243416D01*
X313520D01*
X313510Y243536D01*
X313501Y243629D01*
X313492Y243712D01*
X313482Y243767D01*
X313473Y243813D01*
Y243850D01*
X313464Y243860D01*
Y243869D01*
X312807Y246579D01*
X311679D01*
X310948Y243887D01*
X310920Y243730D01*
X310902Y243582D01*
X310893Y243517D01*
X310883Y243471D01*
Y243434D01*
Y243425D01*
X310856D01*
X310846Y243527D01*
X310837Y243619D01*
X310819Y243693D01*
X310809Y243758D01*
X310800Y243804D01*
Y243841D01*
X310791Y243860D01*
Y243869D01*
X310199Y246579D01*
X308978D01*
X310143Y242500D01*
D02*
G37*
G36*
X294122Y246625D02*
X294030Y246607D01*
X293947Y246579D01*
X293872Y246551D01*
X293808Y246515D01*
X293761Y246487D01*
X293734Y246468D01*
X293724Y246459D01*
X293651Y246385D01*
X293604Y246311D01*
X293567Y246237D01*
X293540Y246163D01*
X293521Y246108D01*
X293512Y246052D01*
Y246015D01*
Y246006D01*
X293521Y245904D01*
X293540Y245821D01*
X293577Y245738D01*
X293614Y245673D01*
X293651Y245617D01*
X293688Y245580D01*
X293706Y245552D01*
X293715Y245543D01*
X293798Y245488D01*
X293882Y245442D01*
X293965Y245414D01*
X294039Y245386D01*
X294113Y245377D01*
X294168Y245368D01*
X294215D01*
X294326Y245377D01*
X294427Y245395D01*
X294511Y245423D01*
X294585Y245460D01*
X294640Y245488D01*
X294687Y245515D01*
X294714Y245534D01*
X294724Y245543D01*
X294788Y245617D01*
X294844Y245691D01*
X294881Y245765D01*
X294899Y245839D01*
X294918Y245904D01*
X294927Y245959D01*
Y245996D01*
Y246006D01*
X294918Y246108D01*
X294899Y246191D01*
X294862Y246274D01*
X294825Y246339D01*
X294788Y246385D01*
X294751Y246431D01*
X294733Y246450D01*
X294724Y246459D01*
X294640Y246515D01*
X294557Y246561D01*
X294483Y246588D01*
X294400Y246616D01*
X294335Y246625D01*
X294280Y246635D01*
X294233D01*
X294122Y246625D01*
D02*
G37*
G36*
X291023Y246672D02*
X290876Y246653D01*
X290746Y246616D01*
X290616Y246570D01*
X290496Y246515D01*
X290385Y246450D01*
X290293Y246385D01*
X290200Y246320D01*
X290117Y246255D01*
X290052Y246191D01*
X289997Y246126D01*
X289941Y246071D01*
X289904Y246024D01*
X289877Y245987D01*
X289867Y245969D01*
X289858Y245959D01*
X289840D01*
Y246579D01*
X288646D01*
Y240622D01*
X289840D01*
Y242990D01*
X289858D01*
X289932Y242888D01*
X290015Y242796D01*
X290108Y242722D01*
X290200Y242657D01*
X290293Y242602D01*
X290385Y242546D01*
X290570Y242481D01*
X290737Y242435D01*
X290811Y242426D01*
X290876Y242417D01*
X290922Y242407D01*
X290996D01*
X291144Y242417D01*
X291292Y242435D01*
X291421Y242463D01*
X291551Y242500D01*
X291782Y242602D01*
X291884Y242657D01*
X291967Y242713D01*
X292050Y242768D01*
X292124Y242824D01*
X292189Y242879D01*
X292235Y242926D01*
X292272Y242963D01*
X292300Y242990D01*
X292319Y243009D01*
X292328Y243018D01*
X292420Y243138D01*
X292503Y243268D01*
X292568Y243397D01*
X292624Y243536D01*
X292716Y243804D01*
X292781Y244063D01*
X292799Y244183D01*
X292818Y244295D01*
X292827Y244396D01*
X292836Y244489D01*
X292846Y244553D01*
Y244609D01*
Y244646D01*
Y244655D01*
X292836Y244822D01*
X292827Y244988D01*
X292809Y245136D01*
X292781Y245284D01*
X292744Y245414D01*
X292707Y245534D01*
X292670Y245645D01*
X292624Y245747D01*
X292587Y245839D01*
X292541Y245913D01*
X292503Y245978D01*
X292476Y246034D01*
X292439Y246080D01*
X292420Y246108D01*
X292411Y246126D01*
X292402Y246135D01*
X292319Y246228D01*
X292226Y246320D01*
X292124Y246385D01*
X292022Y246450D01*
X291921Y246505D01*
X291819Y246551D01*
X291625Y246616D01*
X291449Y246653D01*
X291375Y246662D01*
X291310Y246672D01*
X291255Y246681D01*
X291181D01*
X291023Y246672D01*
D02*
G37*
G36*
X303696Y242500D02*
X304936D01*
X305611Y244960D01*
X305648Y245127D01*
X305657Y245201D01*
X305666Y245284D01*
X305676Y245349D01*
X305685Y245405D01*
Y245442D01*
Y245451D01*
X305713D01*
X305731Y245266D01*
X305740Y245182D01*
X305750Y245109D01*
X305759Y245044D01*
X305768Y244998D01*
X305777Y244960D01*
Y244951D01*
X306406Y242500D01*
X307664D01*
X308839Y246579D01*
X307738D01*
X307165Y243869D01*
X307137Y243693D01*
X307128Y243610D01*
X307119Y243545D01*
X307109Y243490D01*
X307100Y243453D01*
Y243425D01*
Y243416D01*
X307072D01*
X307063Y243536D01*
X307054Y243629D01*
X307045Y243712D01*
X307035Y243767D01*
X307026Y243813D01*
Y243850D01*
X307017Y243860D01*
Y243869D01*
X306360Y246579D01*
X305231D01*
X304501Y243887D01*
X304473Y243730D01*
X304454Y243582D01*
X304445Y243517D01*
X304436Y243471D01*
Y243434D01*
Y243425D01*
X304408D01*
X304399Y243527D01*
X304390Y243619D01*
X304371Y243693D01*
X304362Y243758D01*
X304353Y243804D01*
Y243841D01*
X304344Y243860D01*
Y243869D01*
X303751Y246579D01*
X302531D01*
X303696Y242500D01*
D02*
G37*
%LPC*%
G36*
X331612Y245867D02*
X331668D01*
X331798Y245858D01*
X331908Y245830D01*
X332010Y245784D01*
X332094Y245728D01*
X332168Y245654D01*
X332232Y245580D01*
X332278Y245497D01*
X332315Y245414D01*
X332371Y245238D01*
X332389Y245164D01*
X332399Y245099D01*
X332408Y245035D01*
Y244988D01*
Y244960D01*
Y244951D01*
X330826D01*
X330854Y245099D01*
X330900Y245229D01*
X330946Y245340D01*
X331002Y245432D01*
X331048Y245506D01*
X331085Y245562D01*
X331113Y245599D01*
X331122Y245608D01*
X331215Y245691D01*
X331307Y245756D01*
X331400Y245802D01*
X331483Y245839D01*
X331557Y245858D01*
X331612Y245867D01*
D02*
G37*
G36*
X290681Y245765D02*
X290746D01*
X290903Y245756D01*
X291033Y245719D01*
X291153Y245663D01*
X291246Y245589D01*
X291329Y245506D01*
X291403Y245414D01*
X291458Y245312D01*
X291505Y245210D01*
X291542Y245099D01*
X291569Y244998D01*
X291588Y244905D01*
X291606Y244822D01*
Y244748D01*
X291616Y244692D01*
Y244655D01*
Y244646D01*
X291606Y244424D01*
X291579Y244220D01*
X291532Y244054D01*
X291495Y243915D01*
X291449Y243804D01*
X291403Y243721D01*
X291375Y243675D01*
X291366Y243656D01*
X291264Y243545D01*
X291153Y243462D01*
X291033Y243397D01*
X290922Y243360D01*
X290829Y243333D01*
X290746Y243323D01*
X290690Y243314D01*
X290672D01*
X290533Y243323D01*
X290413Y243360D01*
X290311Y243407D01*
X290219Y243453D01*
X290145Y243508D01*
X290099Y243545D01*
X290061Y243582D01*
X290052Y243591D01*
X289978Y243703D01*
X289923Y243823D01*
X289877Y243943D01*
X289849Y244054D01*
X289830Y244156D01*
X289821Y244230D01*
Y244285D01*
Y244295D01*
Y244304D01*
Y244655D01*
X289830Y244831D01*
X289858Y244988D01*
X289904Y245127D01*
X289950Y245238D01*
X289997Y245331D01*
X290043Y245395D01*
X290071Y245442D01*
X290080Y245451D01*
X290182Y245552D01*
X290293Y245636D01*
X290404Y245691D01*
X290515Y245728D01*
X290607Y245747D01*
X290681Y245765D01*
D02*
G37*
G36*
X359806D02*
X359825D01*
X359992Y245756D01*
X360139Y245710D01*
X360269Y245654D01*
X360380Y245580D01*
X360472Y245488D01*
X360556Y245386D01*
X360620Y245284D01*
X360667Y245173D01*
X360704Y245062D01*
X360741Y244951D01*
X360759Y244849D01*
X360769Y244757D01*
X360778Y244683D01*
X360787Y244627D01*
Y244581D01*
Y244572D01*
X360778Y244350D01*
X360750Y244156D01*
X360695Y243989D01*
X360639Y243841D01*
X360565Y243721D01*
X360482Y243619D01*
X360399Y243536D01*
X360306Y243471D01*
X360213Y243416D01*
X360130Y243379D01*
X360047Y243351D01*
X359973Y243333D01*
X359917Y243323D01*
X359871Y243314D01*
X359825D01*
X359649Y243333D01*
X359492Y243370D01*
X359363Y243425D01*
X359251Y243508D01*
X359150Y243601D01*
X359067Y243703D01*
X359002Y243813D01*
X358956Y243924D01*
X358909Y244036D01*
X358881Y244146D01*
X358854Y244248D01*
X358844Y244341D01*
X358835Y244424D01*
X358826Y244479D01*
Y244526D01*
Y244535D01*
X358835Y244739D01*
X358863Y244923D01*
X358909Y245081D01*
X358956Y245210D01*
X359002Y245312D01*
X359048Y245386D01*
X359076Y245423D01*
X359085Y245442D01*
X359196Y245552D01*
X359316Y245626D01*
X359436Y245682D01*
X359557Y245728D01*
X359659Y245747D01*
X359751Y245756D01*
X359806Y245765D01*
D02*
G37*
%LPD*%
D10*
X337500Y387500D02*
X322500D01*
Y352500D02*
Y387500D01*
X357500Y352500D02*
X322500D01*
X357500Y340000D02*
Y352500D01*
Y340000D02*
X297500D01*
Y312500D02*
Y340000D01*
X345000Y382500D02*
X325000D01*
Y355000D02*
Y382500D01*
X360000Y355000D02*
X325000D01*
X360000Y337500D02*
Y355000D01*
Y337500D02*
X302500D01*
Y305000D02*
Y337500D01*
X345000Y372500D02*
X327500D01*
Y357500D02*
Y372500D01*
X362500Y357500D02*
X327500D01*
X362500Y335000D02*
Y357500D01*
Y335000D02*
X307500D01*
Y312500D02*
Y335000D01*
X337500Y367500D02*
X330000D01*
Y360000D02*
Y367500D01*
X365000Y360000D02*
X330000D01*
X365000Y332500D02*
Y360000D01*
Y332500D02*
X322500D01*
Y305000D02*
Y332500D01*
X400000Y367500D02*
X387500D01*
X400000Y360000D02*
Y367500D01*
Y360000D02*
X367500D01*
Y332500D02*
Y360000D01*
X400000Y332500D02*
X367500D01*
X400000Y312500D02*
Y332500D01*
X402500Y372500D02*
X395000D01*
X402500Y357500D02*
Y372500D01*
Y357500D02*
X370000D01*
Y335000D02*
Y357500D01*
X405000Y335000D02*
X370000D01*
X405000Y305000D02*
Y335000D01*
Y377500D02*
X387500D01*
X405000Y355000D02*
Y377500D01*
Y355000D02*
X372500D01*
Y337500D02*
Y355000D01*
X410000Y337500D02*
X372500D01*
X410000Y312500D02*
Y337500D01*
X407500Y392500D02*
X395000D01*
X407500Y352500D02*
Y392500D01*
Y352500D02*
X375000D01*
Y340000D02*
Y352500D01*
X425000Y340000D02*
X375000D01*
X425000Y305000D02*
Y340000D01*
D11*
X422500Y362500D02*
D03*
Y407500D02*
D03*
X395000Y277500D02*
D03*
X440000D02*
D03*
X310000Y407500D02*
D03*
Y362500D02*
D03*
X292500Y277500D02*
D03*
X337500D02*
D03*
D12*
X440500Y417500D02*
D03*
Y352500D02*
D03*
X450000Y259500D02*
D03*
X385000D02*
D03*
X292000Y352500D02*
D03*
Y417500D02*
D03*
X347500Y259500D02*
D03*
X282500D02*
D03*
D13*
X387500Y377500D02*
D03*
Y367500D02*
D03*
X395000Y372500D02*
D03*
Y382500D02*
D03*
X387500Y387500D02*
D03*
X395000Y392500D02*
D03*
X387500Y397500D02*
D03*
X395000Y402500D02*
D03*
X410000Y312500D02*
D03*
X400000D02*
D03*
X405000Y305000D02*
D03*
X415000D02*
D03*
X420000Y312500D02*
D03*
X425000Y305000D02*
D03*
X430000Y312500D02*
D03*
X435000Y305000D02*
D03*
X345000Y392500D02*
D03*
Y402500D02*
D03*
X337500Y397500D02*
D03*
Y387500D02*
D03*
X345000Y382500D02*
D03*
X337500Y377500D02*
D03*
X345000Y372500D02*
D03*
X337500Y367500D02*
D03*
X307500Y312500D02*
D03*
X297500D02*
D03*
X302500Y305000D02*
D03*
X312500D02*
D03*
X317500Y312500D02*
D03*
X322500Y305000D02*
D03*
X327500Y312500D02*
D03*
X332500Y305000D02*
D03*
M02*
