G04 Layer_Color=32896*
%FSLAX25Y25*%
%MOIN*%
G70*
G01*
G75*
G36*
X344000Y313000D02*
X348705D01*
Y314387D01*
X345711D01*
Y321009D01*
X344000D01*
Y313000D01*
D02*
G37*
G36*
X357764D02*
X359384D01*
Y317549D01*
Y317860D01*
X359371Y318119D01*
Y318339D01*
X359358Y318521D01*
X359345Y318651D01*
Y318754D01*
X359332Y318819D01*
Y318832D01*
X359358D01*
X359409Y318728D01*
X359474Y318625D01*
X359604Y318417D01*
X359656Y318327D01*
X359707Y318249D01*
X359733Y318197D01*
X359746Y318184D01*
X363142Y313000D01*
X364892D01*
Y321009D01*
X363271D01*
Y316447D01*
Y316162D01*
X363284Y315929D01*
Y315735D01*
X363297Y315579D01*
X363310Y315462D01*
Y315385D01*
X363323Y315346D01*
Y315333D01*
X363297D01*
X363259Y315398D01*
X363207Y315488D01*
X363142Y315592D01*
X363064Y315696D01*
X362999Y315799D01*
X362948Y315890D01*
X362909Y315942D01*
X362896Y315968D01*
X359630Y321009D01*
X357764D01*
Y313000D01*
D02*
G37*
G36*
X348925D02*
X350778D01*
X351374Y314827D01*
X354290D01*
X354886Y313000D01*
X356753D01*
X353875Y321009D01*
X351867D01*
X348925Y313000D01*
D02*
G37*
G36*
X385848Y318845D02*
X385641Y318819D01*
X385459Y318767D01*
X385278Y318702D01*
X385109Y318625D01*
X384954Y318534D01*
X384824Y318443D01*
X384694Y318353D01*
X384578Y318262D01*
X384487Y318171D01*
X384409Y318080D01*
X384331Y318003D01*
X384280Y317938D01*
X384241Y317886D01*
X384228Y317860D01*
X384215Y317847D01*
X384189D01*
Y318715D01*
X382517D01*
Y310369D01*
X384189D01*
Y313687D01*
X384215D01*
X384319Y313544D01*
X384435Y313415D01*
X384565Y313311D01*
X384694Y313220D01*
X384824Y313143D01*
X384954Y313065D01*
X385213Y312974D01*
X385446Y312909D01*
X385550Y312896D01*
X385641Y312883D01*
X385705Y312870D01*
X385809D01*
X386016Y312883D01*
X386224Y312909D01*
X386405Y312948D01*
X386587Y313000D01*
X386911Y313143D01*
X387053Y313220D01*
X387170Y313298D01*
X387286Y313376D01*
X387390Y313454D01*
X387481Y313531D01*
X387546Y313596D01*
X387597Y313648D01*
X387636Y313687D01*
X387662Y313713D01*
X387675Y313726D01*
X387805Y313894D01*
X387921Y314076D01*
X388012Y314257D01*
X388090Y314452D01*
X388219Y314827D01*
X388310Y315190D01*
X388336Y315359D01*
X388362Y315514D01*
X388375Y315657D01*
X388388Y315786D01*
X388401Y315877D01*
Y315955D01*
Y316007D01*
Y316020D01*
X388388Y316253D01*
X388375Y316486D01*
X388349Y316694D01*
X388310Y316901D01*
X388258Y317082D01*
X388207Y317251D01*
X388155Y317406D01*
X388090Y317549D01*
X388038Y317679D01*
X387973Y317782D01*
X387921Y317873D01*
X387883Y317951D01*
X387831Y318016D01*
X387805Y318054D01*
X387792Y318080D01*
X387779Y318093D01*
X387662Y318223D01*
X387533Y318353D01*
X387390Y318443D01*
X387247Y318534D01*
X387105Y318612D01*
X386962Y318676D01*
X386690Y318767D01*
X386444Y318819D01*
X386340Y318832D01*
X386250Y318845D01*
X386172Y318858D01*
X386068D01*
X385848Y318845D01*
D02*
G37*
G36*
X369168Y319610D02*
X371449D01*
Y313000D01*
X373160D01*
Y319610D01*
X375454D01*
Y321009D01*
X369168D01*
Y319610D01*
D02*
G37*
G36*
X444017Y242500D02*
X444963D01*
X446039Y245358D01*
X445164D01*
X444627Y243543D01*
X444601Y243446D01*
X444581Y243355D01*
X444562Y243271D01*
X444549Y243200D01*
X444542Y243142D01*
X444536Y243103D01*
X444529Y243070D01*
Y243064D01*
X444516D01*
X444510Y243142D01*
X444497Y243226D01*
X444477Y243310D01*
X444464Y243388D01*
X444445Y243453D01*
X444432Y243511D01*
X444426Y243543D01*
X444419Y243556D01*
X443894Y245358D01*
X443000D01*
X444017Y242500D01*
D02*
G37*
G36*
X449992Y243310D02*
X449927Y243297D01*
X449869Y243278D01*
X449817Y243252D01*
X449772Y243226D01*
X449739Y243206D01*
X449720Y243193D01*
X449713Y243187D01*
X449661Y243135D01*
X449629Y243083D01*
X449603Y243031D01*
X449584Y242980D01*
X449571Y242941D01*
X449564Y242902D01*
Y242876D01*
Y242869D01*
X449571Y242805D01*
X449584Y242740D01*
X449610Y242688D01*
X449636Y242643D01*
X449661Y242610D01*
X449687Y242578D01*
X449700Y242565D01*
X449707Y242558D01*
X449765Y242519D01*
X449823Y242487D01*
X449882Y242468D01*
X449940Y242448D01*
X449985Y242442D01*
X450024Y242435D01*
X450057D01*
X450135Y242442D01*
X450206Y242455D01*
X450264Y242474D01*
X450316Y242494D01*
X450355Y242513D01*
X450387Y242532D01*
X450407Y242545D01*
X450413Y242552D01*
X450458Y242604D01*
X450497Y242655D01*
X450523Y242707D01*
X450536Y242759D01*
X450549Y242805D01*
X450556Y242837D01*
Y242863D01*
Y242869D01*
X450549Y242941D01*
X450536Y242999D01*
X450510Y243057D01*
X450484Y243103D01*
X450458Y243135D01*
X450433Y243167D01*
X450420Y243180D01*
X450413Y243187D01*
X450355Y243232D01*
X450296Y243265D01*
X450245Y243284D01*
X450186Y243303D01*
X450141Y243310D01*
X450102Y243317D01*
X450070D01*
X449992Y243310D01*
D02*
G37*
G36*
X452370Y246569D02*
X452253Y246563D01*
X452033Y246524D01*
X451929Y246498D01*
X451832Y246466D01*
X451742Y246433D01*
X451664Y246407D01*
X451586Y246375D01*
X451521Y246343D01*
X451463Y246310D01*
X451411Y246284D01*
X451372Y246265D01*
X451346Y246245D01*
X451327Y246239D01*
X451320Y246233D01*
Y245487D01*
X451411Y245559D01*
X451502Y245623D01*
X451592Y245682D01*
X451677Y245727D01*
X451767Y245766D01*
X451845Y245798D01*
X452001Y245850D01*
X452066Y245870D01*
X452130Y245883D01*
X452182Y245889D01*
X452227Y245896D01*
X452266Y245902D01*
X452318D01*
X452428Y245896D01*
X452519Y245876D01*
X452603Y245850D01*
X452675Y245811D01*
X452733Y245772D01*
X452785Y245721D01*
X452824Y245669D01*
X452856Y245617D01*
X452882Y245565D01*
X452901Y245513D01*
X452914Y245461D01*
X452927Y245423D01*
Y245384D01*
X452934Y245358D01*
Y245338D01*
Y245332D01*
X452927Y245241D01*
X452908Y245150D01*
X452888Y245066D01*
X452863Y244988D01*
X452830Y244930D01*
X452811Y244878D01*
X452791Y244852D01*
X452785Y244839D01*
X452720Y244749D01*
X452649Y244651D01*
X452564Y244554D01*
X452480Y244463D01*
X452402Y244386D01*
X452338Y244321D01*
X452312Y244295D01*
X452292Y244275D01*
X452286Y244269D01*
X452279Y244263D01*
X451126Y243155D01*
Y242500D01*
X453744D01*
Y243193D01*
X452085D01*
Y243206D01*
X452921Y243965D01*
X453070Y244107D01*
X453206Y244250D01*
X453316Y244386D01*
X453413Y244522D01*
X453498Y244645D01*
X453569Y244768D01*
X453627Y244885D01*
X453673Y244988D01*
X453705Y245086D01*
X453731Y245176D01*
X453750Y245248D01*
X453763Y245312D01*
X453770Y245364D01*
X453776Y245403D01*
Y245429D01*
Y245435D01*
X453770Y245533D01*
X453763Y245623D01*
X453724Y245792D01*
X453666Y245934D01*
X453601Y246058D01*
X453537Y246148D01*
X453511Y246187D01*
X453478Y246219D01*
X453459Y246239D01*
X453439Y246258D01*
X453433Y246265D01*
X453426Y246271D01*
X453362Y246323D01*
X453290Y246375D01*
X453135Y246446D01*
X452979Y246505D01*
X452830Y246537D01*
X452701Y246563D01*
X452642Y246569D01*
X452590D01*
X452552Y246576D01*
X452493D01*
X452370Y246569D01*
D02*
G37*
G36*
X446493Y246219D02*
Y245533D01*
X447355Y245727D01*
Y243161D01*
X446519D01*
Y242500D01*
X449020D01*
Y243161D01*
X448190D01*
Y246576D01*
X446493Y246219D01*
D02*
G37*
G36*
X378305Y318832D02*
X378124Y318819D01*
X377955Y318793D01*
X377800Y318767D01*
X377670Y318741D01*
X377592Y318728D01*
X377579Y318715D01*
X377566D01*
X377333Y318664D01*
X377126Y318612D01*
X376957Y318547D01*
X376802Y318495D01*
X376685Y318443D01*
X376607Y318404D01*
X376543Y318378D01*
X376530Y318365D01*
Y317082D01*
X376698Y317186D01*
X376880Y317290D01*
X377217Y317445D01*
X377540Y317549D01*
X377839Y317627D01*
X377968Y317653D01*
X378085Y317679D01*
X378201Y317691D01*
X378292D01*
X378357Y317705D01*
X378461D01*
X378642Y317691D01*
X378798Y317666D01*
X378940Y317614D01*
X379057Y317549D01*
X379160Y317471D01*
X379251Y317393D01*
X379316Y317303D01*
X379368Y317212D01*
X379446Y317018D01*
X379485Y316862D01*
X379497Y316797D01*
Y316745D01*
Y316720D01*
Y316707D01*
X377929Y316499D01*
X377579Y316434D01*
X377281Y316344D01*
X377022Y316227D01*
X376789Y316085D01*
X376594Y315929D01*
X376439Y315773D01*
X376309Y315605D01*
X376206Y315437D01*
X376128Y315268D01*
X376063Y315112D01*
X376024Y314970D01*
X375985Y314840D01*
X375972Y314737D01*
X375959Y314659D01*
Y314594D01*
Y314581D01*
X375985Y314296D01*
X376037Y314050D01*
X376115Y313829D01*
X376206Y313648D01*
X376296Y313505D01*
X376374Y313402D01*
X376426Y313350D01*
X376452Y313324D01*
X376646Y313169D01*
X376867Y313065D01*
X377087Y312987D01*
X377294Y312922D01*
X377476Y312896D01*
X377631Y312883D01*
X377683Y312870D01*
X377761D01*
X377968Y312883D01*
X378163Y312909D01*
X378344Y312961D01*
X378500Y313026D01*
X378655Y313091D01*
X378798Y313169D01*
X378927Y313259D01*
X379044Y313350D01*
X379135Y313441D01*
X379225Y313531D01*
X379303Y313609D01*
X379368Y313674D01*
X379407Y313739D01*
X379446Y313791D01*
X379471Y313816D01*
Y313829D01*
X379485D01*
Y313000D01*
X381079D01*
Y316447D01*
Y316668D01*
X381053Y316875D01*
X381014Y317069D01*
X380975Y317238D01*
X380858Y317562D01*
X380703Y317847D01*
X380521Y318080D01*
X380314Y318275D01*
X380107Y318430D01*
X379886Y318560D01*
X379653Y318651D01*
X379446Y318728D01*
X379238Y318780D01*
X379057Y318819D01*
X378901Y318845D01*
X378785Y318858D01*
X378500D01*
X378305Y318832D01*
D02*
G37*
%LPC*%
G36*
X352800Y319636D02*
X352852D01*
X352865Y319480D01*
X352878Y319337D01*
X352904Y319221D01*
X352917Y319117D01*
X352942Y319039D01*
X352955Y318987D01*
X352968Y318949D01*
Y318936D01*
X353889Y316149D01*
X351750D01*
X352657Y318949D01*
X352735Y319195D01*
X352748Y319311D01*
X352774Y319415D01*
X352787Y319506D01*
X352800Y319571D01*
Y319623D01*
Y319636D01*
D02*
G37*
G36*
X385368Y317575D02*
X385459D01*
X385679Y317562D01*
X385861Y317510D01*
X386029Y317432D01*
X386159Y317329D01*
X386276Y317212D01*
X386379Y317082D01*
X386457Y316940D01*
X386522Y316797D01*
X386574Y316642D01*
X386613Y316499D01*
X386638Y316370D01*
X386664Y316253D01*
Y316149D01*
X386677Y316072D01*
Y316020D01*
Y316007D01*
X386664Y315696D01*
X386625Y315411D01*
X386561Y315177D01*
X386509Y314983D01*
X386444Y314827D01*
X386379Y314711D01*
X386340Y314646D01*
X386327Y314620D01*
X386185Y314464D01*
X386029Y314348D01*
X385861Y314257D01*
X385705Y314205D01*
X385576Y314166D01*
X385459Y314153D01*
X385381Y314141D01*
X385355D01*
X385161Y314153D01*
X384993Y314205D01*
X384850Y314270D01*
X384720Y314335D01*
X384617Y314413D01*
X384552Y314464D01*
X384500Y314516D01*
X384487Y314529D01*
X384383Y314685D01*
X384306Y314853D01*
X384241Y315022D01*
X384202Y315177D01*
X384176Y315320D01*
X384163Y315423D01*
Y315501D01*
Y315514D01*
Y315527D01*
Y316020D01*
X384176Y316266D01*
X384215Y316486D01*
X384280Y316681D01*
X384345Y316836D01*
X384409Y316966D01*
X384474Y317056D01*
X384513Y317121D01*
X384526Y317134D01*
X384668Y317277D01*
X384824Y317393D01*
X384980Y317471D01*
X385135Y317523D01*
X385265Y317549D01*
X385368Y317575D01*
D02*
G37*
G36*
X379497Y315722D02*
Y315320D01*
X379485Y315125D01*
X379446Y314944D01*
X379394Y314789D01*
X379329Y314659D01*
X379264Y314555D01*
X379212Y314477D01*
X379173Y314426D01*
X379160Y314413D01*
X379031Y314296D01*
X378888Y314205D01*
X378759Y314141D01*
X378629Y314102D01*
X378513Y314076D01*
X378422Y314050D01*
X378331D01*
X378201Y314063D01*
X378085Y314076D01*
X377981Y314115D01*
X377890Y314153D01*
X377826Y314179D01*
X377774Y314218D01*
X377748Y314231D01*
X377735Y314244D01*
X377657Y314322D01*
X377605Y314413D01*
X377566Y314503D01*
X377540Y314594D01*
X377527Y314659D01*
X377515Y314724D01*
Y314763D01*
Y314775D01*
X377527Y314892D01*
X377553Y315009D01*
X377592Y315112D01*
X377657Y315190D01*
X377800Y315333D01*
X377968Y315437D01*
X378137Y315514D01*
X378279Y315566D01*
X378344Y315579D01*
X378383D01*
X378409Y315592D01*
X378422D01*
X379497Y315722D01*
D02*
G37*
%LPD*%
M02*
